<svg id="Layer_1" data-name="Layer 1" xmlns="http://www.w3.org/2000/svg" xmlns:xlink="http://www.w3.org/1999/xlink" viewBox="0 0 1920 371"><defs><style>.cls-1,.cls-4{fill:none;}.cls-2{clip-path:url(#clip-path);}.cls-3{fill:#ffa600;}.cls-4{stroke:#fff;stroke-linejoin:round;stroke-width:0.75px;}.cls-5{fill:#ff7c43;}.cls-6{fill:#665191;}.cls-7{fill:#14a594;}.cls-8{fill:#f95d6a;}.cls-9{fill:#003f5c;}.cls-10{fill:#a05195;}.cls-11{fill:#d45087;}.cls-12{clip-path:url(#clip-path-2);}.cls-13{fill:#fff;}.cls-14{clip-path:url(#clip-path-3);}.cls-15{clip-path:url(#clip-path-4);}.cls-16{clip-path:url(#clip-path-5);}.cls-17{clip-path:url(#clip-path-6);}.cls-18{clip-path:url(#clip-path-7);}.cls-19{clip-path:url(#clip-path-8);}.cls-20{clip-path:url(#clip-path-9);}.cls-21{opacity:0;}</style><clipPath id="clip-path"><rect class="cls-1" x="14.11" y="13.17" width="1892.74" height="294.15"/></clipPath><clipPath id="clip-path-2"><rect class="cls-1" x="1682.88" y="277.52" width="223.98" height="25.95"/></clipPath><clipPath id="clip-path-3"><rect class="cls-1" x="1285.87" y="277.52" width="360.48" height="25.95"/></clipPath><clipPath id="clip-path-4"><rect class="cls-1" x="1680.95" y="191.01" width="225.9" height="25.95"/></clipPath><clipPath id="clip-path-5"><rect class="cls-1" x="1535.8" y="277.52" width="289.34" height="25.95"/></clipPath><clipPath id="clip-path-6"><rect class="cls-1" x="14.11" y="277.52" width="210.52" height="25.95"/></clipPath><clipPath id="clip-path-7"><rect class="cls-1" x="583.18" y="277.52" width="359.52" height="25.95"/></clipPath><clipPath id="clip-path-8"><rect class="cls-1" x="1008.06" y="277.52" width="360.48" height="25.95"/></clipPath><clipPath id="clip-path-9"><rect class="cls-1" x="1535.8" y="191.01" width="289.34" height="25.95"/></clipPath></defs><title>ProjectsbyType</title><g class="cls-2"><rect class="cls-3" x="1803.52" y="220.33" width="101.89" height="86.51"/><rect class="cls-4" x="1803.52" y="220.33" width="101.89" height="86.51"/><rect class="cls-5" x="1437.27" y="13.65" width="219.17" height="293.19"/><rect class="cls-4" x="1437.27" y="13.65" width="219.17" height="293.19"/><rect class="cls-6" x="1801.59" y="13.65" width="103.82" height="206.67"/><rect class="cls-4" x="1801.59" y="13.65" width="103.82" height="206.67"/><rect class="cls-7" x="1656.44" y="220.33" width="147.07" height="86.51"/><rect class="cls-4" x="1656.44" y="220.33" width="147.07" height="86.51"/><rect class="cls-8" x="14.59" y="13.65" width="719.03" height="293.19"/><rect class="cls-4" x="14.59" y="13.65" width="719.03" height="293.19"/><rect class="cls-9" x="733.62" y="13.65" width="424.88" height="293.19"/><rect class="cls-4" x="733.62" y="13.65" width="424.88" height="293.19"/><rect class="cls-10" x="1158.5" y="13.65" width="278.77" height="293.19"/><rect class="cls-4" x="1158.5" y="13.65" width="278.77" height="293.19"/><rect class="cls-11" x="1656.44" y="13.65" width="145.15" height="206.67"/><rect class="cls-4" x="1656.44" y="13.65" width="145.15" height="206.67"/></g><g class="cls-12"><path class="cls-13" d="M1812.2,298.67V286.52l-2.56,2.25v-1.58l2.56-2.21h1.38v13.69Z"/><path class="cls-13" d="M1819,298.67v-1.81h1.8v1.81Z"/><path class="cls-13" d="M1827.52,298.79a3.64,3.64,0,0,1-3.8-4,6.67,6.67,0,0,1,.86-3.07L1828,285h1.42l-3.06,6.15a3.46,3.46,0,0,1,1.44-.28,3.56,3.56,0,0,1,3.56,3.88A3.74,3.74,0,0,1,1827.52,298.79Zm0-6.77c-1.46,0-2.4,1.07-2.4,2.77s.94,2.77,2.4,2.77a2.79,2.79,0,0,0,0-5.54Z"/><path class="cls-13" d="M1836.35,292a2.45,2.45,0,0,1-2.6-2.58v-2a2.6,2.6,0,0,1,5.19,0v2A2.44,2.44,0,0,1,1836.35,292Zm1.48-4.56c0-1-.43-1.67-1.48-1.67s-1.5.63-1.5,1.67v1.94c0,1,.44,1.66,1.5,1.66s1.48-.62,1.48-1.66Zm.05,11.19h-1.15l6.42-13.69h1.16Zm6.81.14a2.46,2.46,0,0,1-2.6-2.58v-2a2.6,2.6,0,1,1,5.2,0v2A2.46,2.46,0,0,1,1844.69,298.81Zm1.48-4.56c0-1-.42-1.67-1.48-1.67s-1.5.63-1.5,1.67v1.92c0,1.06.44,1.67,1.5,1.67s1.48-.61,1.48-1.67Z"/></g><g class="cls-14"><path class="cls-13" d="M1445.69,298.67V286.52l-2.56,2.25v-1.58l2.56-2.21h1.39v13.69Z"/><path class="cls-13" d="M1455.73,298.67V286.52l-2.56,2.25v-1.58l2.56-2.21h1.38v13.69Z"/><path class="cls-13" d="M1462.49,298.67v-1.81h1.81v1.81Z"/><path class="cls-13" d="M1471.05,298.79a3.64,3.64,0,0,1-3.81-4,6.69,6.69,0,0,1,.87-3.07l3.36-6.79h1.43l-3.06,6.15a3.46,3.46,0,0,1,1.44-.28,3.57,3.57,0,0,1,3.56,3.88A3.74,3.74,0,0,1,1471.05,298.79Zm0-6.77c-1.46,0-2.4,1.07-2.4,2.77s.94,2.77,2.4,2.77,2.42-1.1,2.42-2.77S1472.61,292,1471,292Z"/><path class="cls-13" d="M1479.87,292a2.44,2.44,0,0,1-2.59-2.58v-2a2.6,2.6,0,0,1,5.19,0v2A2.45,2.45,0,0,1,1479.87,292Zm1.48-4.56c0-1-.42-1.67-1.48-1.67s-1.5.63-1.5,1.67v1.94c0,1,.45,1.66,1.5,1.66s1.48-.62,1.48-1.66Zm.06,11.19h-1.15l6.42-13.69h1.15Zm6.81.14a2.46,2.46,0,0,1-2.6-2.58v-2a2.6,2.6,0,1,1,5.19,0v2A2.45,2.45,0,0,1,1488.22,298.81Zm1.48-4.56c0-1-.42-1.67-1.48-1.67s-1.5.63-1.5,1.67v1.92c0,1.06.44,1.67,1.5,1.67s1.48-.61,1.48-1.67Z"/></g><g class="cls-15"><path class="cls-13" d="M1809.79,212.29c-2.15,0-3.9-1.13-4-3.61h1.38a2.42,2.42,0,0,0,2.63,2.38,2.51,2.51,0,0,0,2.64-2.65,2.38,2.38,0,0,0-2.69-2.66h-.29v-1.21h.29a2.2,2.2,0,0,0,2.44-2.48,2.3,2.3,0,0,0-2.39-2.5,2.33,2.33,0,0,0-2.46,2.29H1806a3.64,3.64,0,0,1,3.84-3.52,3.55,3.55,0,0,1,3.77,3.71,3.06,3.06,0,0,1-1.84,3,3.22,3.22,0,0,1,2.09,3.35A3.71,3.71,0,0,1,1809.79,212.29Z"/><path class="cls-13" d="M1816.7,212.16v-1.81h1.8v1.81Z"/><path class="cls-13" d="M1828.12,205.37l-3.37,6.79h-1.44l3.08-6.16a3.48,3.48,0,0,1-1.47.29c-2.13,0-3.53-1.63-3.53-3.88a3.74,3.74,0,0,1,3.78-4.06,3.64,3.64,0,0,1,3.81,3.94A6.83,6.83,0,0,1,1828.12,205.37Zm-2.95-5.79c-1.46,0-2.4,1.1-2.4,2.77s.83,2.77,2.4,2.77,2.43-1.08,2.43-2.77S1826.64,199.58,1825.17,199.58Z"/><path class="cls-13" d="M1834.08,205.52a2.45,2.45,0,0,1-2.6-2.57v-2a2.6,2.6,0,1,1,5.19,0v2A2.44,2.44,0,0,1,1834.08,205.52Zm1.48-4.55c0-1-.43-1.68-1.48-1.68s-1.5.64-1.5,1.68v1.94c0,1,.44,1.65,1.5,1.65s1.48-.61,1.48-1.65Zm0,11.19h-1.15l6.42-13.69H1842Zm6.81.13a2.46,2.46,0,0,1-2.6-2.58v-2a2.6,2.6,0,1,1,5.2,0v2A2.46,2.46,0,0,1,1842.42,212.29Zm1.48-4.56c0-1-.42-1.67-1.48-1.67s-1.5.64-1.5,1.67v1.93c0,1.05.44,1.67,1.5,1.67s1.48-.62,1.48-1.67Z"/></g><g class="cls-16"><path class="cls-13" d="M1661.34,298.67v-1.23l5.4-6.86a3.14,3.14,0,0,0,.77-2,2.39,2.39,0,1,0-4.77,0h-1.38a3.55,3.55,0,0,1,3.77-3.71,3.51,3.51,0,0,1,3.77,3.69,4.13,4.13,0,0,1-1.1,2.77l-4.79,6.11h5.89v1.23Z"/><path class="cls-13" d="M1671.76,298.67v-1.81h1.81v1.81Z"/><path class="cls-13" d="M1680.09,298.81c-2.16,0-3.91-1.14-4-3.62h1.38a2.42,2.42,0,0,0,2.64,2.38,2.5,2.5,0,0,0,2.63-2.65,2.38,2.38,0,0,0-2.69-2.65h-.29v-1.21h.29a2.21,2.21,0,0,0,2.44-2.48,2.29,2.29,0,0,0-2.38-2.5,2.33,2.33,0,0,0-2.47,2.29h-1.38a3.64,3.64,0,0,1,3.85-3.52,3.54,3.54,0,0,1,3.76,3.71,3.07,3.07,0,0,1-1.84,3,3.2,3.2,0,0,1,2.09,3.34A3.71,3.71,0,0,1,1680.09,298.81Z"/><path class="cls-13" d="M1689.14,292a2.45,2.45,0,0,1-2.6-2.58v-2a2.6,2.6,0,0,1,5.2,0v2A2.45,2.45,0,0,1,1689.14,292Zm1.48-4.56c0-1-.42-1.67-1.48-1.67s-1.5.63-1.5,1.67v1.94c0,1,.44,1.66,1.5,1.66s1.48-.62,1.48-1.66Zm.06,11.19h-1.16L1696,285h1.15Zm6.8.14a2.45,2.45,0,0,1-2.59-2.58v-2a2.6,2.6,0,1,1,5.19,0v2A2.46,2.46,0,0,1,1697.48,298.81Zm1.48-4.56c0-1-.42-1.67-1.48-1.67s-1.5.63-1.5,1.67v1.92c0,1.06.45,1.67,1.5,1.67s1.48-.61,1.48-1.67Z"/></g><g class="cls-17"><path class="cls-13" d="M23.54,298.81c-2.15,0-3.9-1.14-4-3.62h1.39a2.41,2.41,0,0,0,2.63,2.38,2.5,2.5,0,0,0,2.63-2.65,2.38,2.38,0,0,0-2.69-2.65h-.29v-1.21h.29a2.2,2.2,0,0,0,2.44-2.48,2.28,2.28,0,0,0-2.38-2.5,2.32,2.32,0,0,0-2.46,2.29H19.7a3.63,3.63,0,0,1,3.84-3.52,3.55,3.55,0,0,1,3.77,3.71,3.08,3.08,0,0,1-1.85,3,3.19,3.19,0,0,1,2.1,3.34A3.72,3.72,0,0,1,23.54,298.81Z"/><path class="cls-13" d="M33.77,298.79a3.84,3.84,0,0,1-4-3.89,3.71,3.71,0,0,1,2.06-3.32,3.35,3.35,0,0,1-1.79-3,3.6,3.6,0,0,1,3.77-3.67,3.6,3.6,0,0,1,3.77,3.67,3.35,3.35,0,0,1-1.77,3,3.71,3.71,0,0,1,2,3.32A3.84,3.84,0,0,1,33.77,298.79Zm0-6.58a2.68,2.68,0,1,0,2.65,2.67A2.61,2.61,0,0,0,33.77,292.21Zm0-6.11a2.45,2.45,0,0,0,0,4.9,2.45,2.45,0,0,0,0-4.9Z"/><path class="cls-13" d="M40.48,298.67v-1.81h1.81v1.81Z"/><path class="cls-13" d="M49,298.79A3.59,3.59,0,0,1,45.25,295v-6.39a3.75,3.75,0,1,1,7.49,0V295A3.61,3.61,0,0,1,49,298.79Zm2.37-10.08a2.38,2.38,0,1,0-4.73,0v6.23a2.38,2.38,0,1,0,4.73,0Z"/><path class="cls-13" d="M57.86,292a2.45,2.45,0,0,1-2.6-2.58v-2a2.6,2.6,0,0,1,5.19,0v2A2.44,2.44,0,0,1,57.86,292Zm1.48-4.56c0-1-.43-1.67-1.48-1.67s-1.5.63-1.5,1.67v1.94c0,1,.44,1.66,1.5,1.66s1.48-.62,1.48-1.66Zm0,11.19H58.24L64.66,285h1.16Zm6.81.14a2.45,2.45,0,0,1-2.59-2.58v-2a2.6,2.6,0,1,1,5.19,0v2A2.46,2.46,0,0,1,66.2,298.81Zm1.48-4.56c0-1-.42-1.67-1.48-1.67s-1.5.63-1.5,1.67v1.92c0,1.06.44,1.67,1.5,1.67s1.48-.61,1.48-1.67Z"/></g><g class="cls-18"><path class="cls-13" d="M738.59,298.67v-1.23l5.41-6.86a3.13,3.13,0,0,0,.76-2,2.38,2.38,0,1,0-4.76,0h-1.39a3.55,3.55,0,0,1,3.77-3.71,3.51,3.51,0,0,1,3.77,3.69,4.13,4.13,0,0,1-1.1,2.77l-4.78,6.11h5.88v1.23Z"/><path class="cls-13" d="M748.63,298.67v-1.23l5.4-6.86a3.14,3.14,0,0,0,.77-2,2.39,2.39,0,1,0-4.77,0h-1.38a3.55,3.55,0,0,1,3.77-3.71,3.5,3.5,0,0,1,3.76,3.69,4.11,4.11,0,0,1-1.09,2.77l-4.79,6.11h5.88v1.23Z"/><path class="cls-13" d="M759.05,298.67v-1.81h1.81v1.81Z"/><path class="cls-13" d="M770.33,297.79a3.68,3.68,0,0,1-2.73,1,3.8,3.8,0,0,1-2.74-1,3.65,3.65,0,0,1-1-2.38h1.39a2.12,2.12,0,0,0,2.32,2.13,2.42,2.42,0,0,0,1.7-.63,3.82,3.82,0,0,0,.75-2.79c0-1.67-.33-3.32-2.31-3.32a2.19,2.19,0,0,0-2.27,1.34h-1.25V285h6.92v1.23h-5.67v4.35a3.2,3.2,0,0,1,2.46-.95,3.27,3.27,0,0,1,2.37.87,4.92,4.92,0,0,1,1.13,3.67A4.78,4.78,0,0,1,770.33,297.79Z"/><path class="cls-13" d="M776.43,292a2.45,2.45,0,0,1-2.6-2.58v-2a2.6,2.6,0,0,1,5.19,0v2A2.44,2.44,0,0,1,776.43,292Zm1.48-4.56c0-1-.42-1.67-1.48-1.67s-1.5.63-1.5,1.67v1.94c0,1,.44,1.66,1.5,1.66s1.48-.62,1.48-1.66Zm.06,11.19h-1.16L783.23,285h1.16Zm6.8.14a2.45,2.45,0,0,1-2.59-2.58v-2a2.6,2.6,0,1,1,5.19,0v2A2.46,2.46,0,0,1,784.77,298.81Zm1.48-4.56c0-1-.42-1.67-1.48-1.67s-1.5.63-1.5,1.67v1.92c0,1.06.44,1.67,1.5,1.67s1.48-.61,1.48-1.67Z"/></g><g class="cls-19"><path class="cls-13" d="M1167.72,298.67V286.52l-2.56,2.25v-1.58l2.56-2.21h1.38v13.69Z"/><path class="cls-13" d="M1180.39,296.5v2.17H1179V296.5h-5.46v-1.25L1178.5,285H1180L1175,295.25h4v-3.89h1.37v3.89h1.67v1.25Z"/><path class="cls-13" d="M1184.52,298.67v-1.81h1.81v1.81Z"/><path class="cls-13" d="M1192.33,298.67h-1.47l4.75-12.46h-4.77v2.16h-1.36V285h7.59v1.23Z"/><path class="cls-13" d="M1201.9,292a2.45,2.45,0,0,1-2.6-2.58v-2a2.6,2.6,0,0,1,5.19,0v2A2.44,2.44,0,0,1,1201.9,292Zm1.48-4.56c0-1-.42-1.67-1.48-1.67s-1.5.63-1.5,1.67v1.94c0,1,.44,1.66,1.5,1.66s1.48-.62,1.48-1.66Zm.06,11.19h-1.16l6.43-13.69h1.15Zm6.8.14a2.45,2.45,0,0,1-2.59-2.58v-2a2.6,2.6,0,1,1,5.19,0v2A2.46,2.46,0,0,1,1210.24,298.81Zm1.48-4.56c0-1-.42-1.67-1.48-1.67s-1.5.63-1.5,1.67v1.92c0,1.06.45,1.67,1.5,1.67s1.48-.61,1.48-1.67Z"/></g><g class="cls-20"><path class="cls-13" d="M1667.82,211.27a3.66,3.66,0,0,1-2.73,1,3.84,3.84,0,0,1-2.75-1,3.65,3.65,0,0,1-1-2.38h1.38a2.14,2.14,0,0,0,2.33,2.13,2.39,2.39,0,0,0,1.69-.63,3.83,3.83,0,0,0,.75-2.79c0-1.67-.33-3.33-2.31-3.33a2.17,2.17,0,0,0-2.26,1.35h-1.25v-7.19h6.92v1.23H1663V204a3.66,3.66,0,0,1,4.82-.07,4.92,4.92,0,0,1,1.14,3.67A4.77,4.77,0,0,1,1667.82,211.27Z"/><path class="cls-13" d="M1671.76,212.16v-1.81h1.81v1.81Z"/><path class="cls-13" d="M1682.85,210v2.18h-1.36V210H1676v-1.25l4.94-10.26h1.48l-4.94,10.26h4v-3.88h1.36v3.88h1.68V210Z"/><path class="cls-13" d="M1689.14,205.52a2.45,2.45,0,0,1-2.6-2.57v-2a2.6,2.6,0,1,1,5.2,0v2A2.45,2.45,0,0,1,1689.14,205.52Zm1.48-4.55c0-1-.42-1.68-1.48-1.68s-1.5.64-1.5,1.68v1.94c0,1,.44,1.65,1.5,1.65s1.48-.61,1.48-1.65Zm.06,11.19h-1.16l6.43-13.69h1.15Zm6.8.13a2.45,2.45,0,0,1-2.59-2.58v-2a2.6,2.6,0,1,1,5.19,0v2A2.46,2.46,0,0,1,1697.48,212.29Zm1.48-4.56c0-1-.42-1.67-1.48-1.67s-1.5.64-1.5,1.67v1.93c0,1.05.45,1.67,1.5,1.67s1.48-.62,1.48-1.67Z"/></g><rect class="cls-21" x="265.64" y="320.62" width="1322.71" height="34.61"/><rect class="cls-3" x="184" y="330.92" width="14" height="14"/><path d="M215.65,344.06a4.72,4.72,0,0,1-3.42-1.34c-1.29-1.29-1.36-2.48-1.36-5.62s.07-4.32,1.36-5.61a4.69,4.69,0,0,1,3.42-1.35,4.63,4.63,0,0,1,4.75,4.08h-1.5a3.22,3.22,0,0,0-3.25-2.77,3.25,3.25,0,0,0-2.36,1c-.87.88-1,1.88-1,4.69s.09,3.81,1,4.69a3.21,3.21,0,0,0,2.36,1,3.25,3.25,0,0,0,3.29-2.76h1.46A4.65,4.65,0,0,1,215.65,344.06Z"/><path d="M229.46,343a4,4,0,0,1-5.43,0,6.74,6.74,0,0,1,0-7.53,4,4,0,0,1,5.43,0,6.74,6.74,0,0,1,0,7.53Zm-1-6.69a2.4,2.4,0,0,0-1.73-.69,2.36,2.36,0,0,0-1.72.69,4.14,4.14,0,0,0-.76,2.93,4.07,4.07,0,0,0,.76,2.92,2.36,2.36,0,0,0,1.72.69,2.4,2.4,0,0,0,1.73-.69,6.08,6.08,0,0,0,0-5.85Z"/><path d="M239.55,344v-1.06a3.46,3.46,0,0,1-2.67,1.17,3.37,3.37,0,0,1-2.44-.88,3.53,3.53,0,0,1-1-2.66v-6h1.39v5.82c0,1.67.88,2.52,2.31,2.52a2.23,2.23,0,0,0,2.36-2.52v-5.82h1.38V344Z"/><path d="M249.66,336.29a2,2,0,0,0-1.63-.69,2.31,2.31,0,0,0-2.27,2.54V344h-1.38v-9.46h1.38v1.15a3.18,3.18,0,0,1,2.65-1.27,2.88,2.88,0,0,1,2.27.89Z"/><path d="M255.45,344.06a5.12,5.12,0,0,1-3.88-1.36l.92-.93a3.91,3.91,0,0,0,2.94,1.1c1.58,0,2.52-.56,2.52-1.67,0-.85-.46-1.29-1.58-1.39l-1.56-.13c-1.84-.16-2.82-1-2.82-2.54s1.44-2.77,3.48-2.77a5.35,5.35,0,0,1,3.4,1l-.9.9a4,4,0,0,0-2.52-.75c-1.39,0-2.12.58-2.12,1.56s.52,1.27,1.7,1.39l1.48.13c1.65.15,2.78.77,2.78,2.56S257.76,344.06,255.45,344.06Z"/><path d="M262.87,339.58c0,2.08,1,3.27,2.79,3.27a3.12,3.12,0,0,0,2.48-1.08l.94.83a4.37,4.37,0,0,1-3.46,1.46c-2.52,0-4.13-1.5-4.13-4.84,0-3.08,1.48-4.85,3.88-4.85s3.88,1.75,3.88,4.6v.61Zm4.71-2.61a2.42,2.42,0,0,0-4.42,0,3.6,3.6,0,0,0-.29,1.57h5A3.89,3.89,0,0,0,267.58,337Z"/><path d="M285.52,342.5a4.56,4.56,0,0,1-3.6,1.45h-4.69V330.26h4.69a4.55,4.55,0,0,1,3.6,1.44c1.21,1.31,1.21,3.31,1.21,5.4S286.73,341.2,285.52,342.5Zm-1.16-9.94a3.41,3.41,0,0,0-2.69-1h-3v11.08h3a3.41,3.41,0,0,0,2.69-1c.89-.94.91-2.64.91-4.54S285.25,333.51,284.36,332.56Z"/><path d="M290.79,339.58c0,2.08,1,3.27,2.78,3.27a3.1,3.1,0,0,0,2.48-1.08l.95.83a4.39,4.39,0,0,1-3.47,1.46c-2.51,0-4.13-1.5-4.13-4.84,0-3.08,1.48-4.85,3.88-4.85s3.89,1.75,3.89,4.6v.61ZM295.5,337a2.43,2.43,0,0,0-4.43,0,3.48,3.48,0,0,0-.28,1.57h5A3.74,3.74,0,0,0,295.5,337Z"/><path d="M303.28,344h-1.23l-3.46-9.46h1.5l2.58,7.59,2.59-7.59h1.5Z"/><path d="M309.57,339.58c0,2.08,1,3.27,2.79,3.27a3.1,3.1,0,0,0,2.47-1.08l.95.83a4.37,4.37,0,0,1-3.46,1.46c-2.52,0-4.14-1.5-4.14-4.84,0-3.08,1.48-4.85,3.89-4.85S316,336.12,316,339v.61Zm4.71-2.61a2.42,2.42,0,0,0-4.42,0,3.46,3.46,0,0,0-.29,1.57h5A3.74,3.74,0,0,0,314.28,337Z"/><path d="M321.26,344a2.26,2.26,0,0,1-2.41-2.52V330.26h1.39v11.11c0,.92.3,1.38,1.27,1.38h.75V344Z"/><path d="M330.62,343a3.94,3.94,0,0,1-5.42,0,6.69,6.69,0,0,1,0-7.53,3.94,3.94,0,0,1,5.42,0,6.74,6.74,0,0,1,0,7.53Zm-1-6.69a2.38,2.38,0,0,0-1.73-.69,2.34,2.34,0,0,0-1.71.69,5.94,5.94,0,0,0,0,5.85,2.34,2.34,0,0,0,1.71.69,2.38,2.38,0,0,0,1.73-.69,6.08,6.08,0,0,0,0-5.85Z"/><path d="M341.1,343.23a3.27,3.27,0,0,1-2.31.83,3.08,3.08,0,0,1-2.67-1.23v5.35h-1.39V334.49h1.39v1.11a3.06,3.06,0,0,1,2.67-1.23,3.27,3.27,0,0,1,2.31.83,7.58,7.58,0,0,1,0,8Zm-2.6-7.63c-2.08,0-2.38,1.77-2.38,3.62s.3,3.61,2.38,3.61,2.37-1.77,2.37-3.61S340.56,335.6,338.5,335.6Z"/><path d="M357.36,344v-5.83a2.35,2.35,0,1,0-4.69-.15v6h-1.38v-5.83A2.21,2.21,0,0,0,349,335.6a2.24,2.24,0,0,0-2.36,2.52V344h-1.39v-9.46h1.39v1a3.46,3.46,0,0,1,2.67-1.15,3.11,3.11,0,0,1,2.9,1.58,3.62,3.62,0,0,1,3.12-1.58,3.44,3.44,0,0,1,2.44.89,3.51,3.51,0,0,1,1,2.63V344Z"/><path d="M363,339.58c0,2.08,1,3.27,2.78,3.27a3.1,3.1,0,0,0,2.48-1.08l.95.83a4.39,4.39,0,0,1-3.47,1.46c-2.51,0-4.13-1.5-4.13-4.84,0-3.08,1.48-4.85,3.88-4.85s3.89,1.75,3.89,4.6v.61Zm4.71-2.61a2.43,2.43,0,0,0-4.43,0,3.48,3.48,0,0,0-.28,1.57h5A3.74,3.74,0,0,0,367.69,337Z"/><path d="M378.36,344v-5.83A2.21,2.21,0,0,0,376,335.6a2.23,2.23,0,0,0-2.35,2.52V344H372.3v-9.46h1.38v1a3.46,3.46,0,0,1,2.66-1.15,3.3,3.3,0,0,1,2.42.89,3.48,3.48,0,0,1,1,2.63V344Z"/><path d="M385.76,344a2.33,2.33,0,0,1-2.43-2.54v-5.87h-1.19v-1.05h1.19v-2.91h1.39v2.91h2v1.05h-2v5.83c0,.86.4,1.38,1.29,1.38h.73V344Z"/><rect class="cls-5" x="418" y="330.92" width="14" height="14"/><path d="M448.42,331.56v5h6v1.31h-6v6H447V330.26h8.5v1.3Z"/><path d="M463.22,344V343a3.36,3.36,0,0,1-2.73,1,3.41,3.41,0,0,1-2.67-.86,2.68,2.68,0,0,1-.71-1.93c0-1.67,1.17-2.73,3.29-2.73h2.82v-.9c0-1.37-.67-2.08-2.42-2.08a2.52,2.52,0,0,0-2.38,1.1l-.94-.87a3.63,3.63,0,0,1,3.34-1.42c2.56,0,3.79,1.12,3.79,3.15V344Zm0-4.37h-2.63c-1.42,0-2.13.56-2.13,1.67s.67,1.62,2.19,1.62a2.82,2.82,0,0,0,2.09-.64,2.15,2.15,0,0,0,.48-1.63Z"/><path d="M471.64,344.06c-2.38,0-4.19-1.61-4.19-4.84s1.81-4.85,4.19-4.85a3.77,3.77,0,0,1,3.12,1.4l-.94.89a2.6,2.6,0,0,0-2.18-1.06,2.57,2.57,0,0,0-2.19,1.08,5.57,5.57,0,0,0,0,5.07,2.55,2.55,0,0,0,2.19,1.08,2.62,2.62,0,0,0,2.18-1.08l.94.91A3.74,3.74,0,0,1,471.64,344.06Z"/><path d="M483.37,344v-1.06a3.45,3.45,0,0,1-2.67,1.17,3.37,3.37,0,0,1-2.44-.88,3.52,3.52,0,0,1-1-2.66v-6h1.38v5.82c0,1.67.89,2.52,2.31,2.52a2.23,2.23,0,0,0,2.36-2.52v-5.82h1.39V344Z"/><path d="M490.56,344a2.25,2.25,0,0,1-2.4-2.52V330.26h1.38v11.11c0,.92.31,1.38,1.27,1.38h.75V344Z"/><path d="M496.5,344a2.32,2.32,0,0,1-2.42-2.54v-5.87h-1.19v-1.05h1.19v-2.91h1.38v2.91h2v1.05h-2v5.83c0,.86.41,1.38,1.29,1.38h.73V344Z"/><path d="M502.58,346.23a2.86,2.86,0,0,1-.67,1.12,2.61,2.61,0,0,1-1.85.65h-.6v-1.23h.43c1,0,1.25-.31,1.55-1.17l.68-1.85-3.41-9.26h1.5l2.6,7.59,2.57-7.59h1.5Z"/><path d="M513.86,344V330.26h1.46v12.38h7V344Z"/><path d="M525.49,339.58c0,2.08,1,3.27,2.79,3.27a3.1,3.1,0,0,0,2.48-1.08l.94.83a4.35,4.35,0,0,1-3.46,1.46c-2.52,0-4.13-1.5-4.13-4.84,0-3.08,1.48-4.85,3.88-4.85s3.89,1.75,3.89,4.6v.61ZM530.2,337a2.42,2.42,0,0,0-4.42,0,3.6,3.6,0,0,0-.29,1.57h5A3.89,3.89,0,0,0,530.2,337Z"/><path d="M540.18,344V343a4.35,4.35,0,0,1-5.4.16,2.68,2.68,0,0,1-.71-1.93c0-1.67,1.17-2.73,3.29-2.73h2.82v-.9c0-1.37-.67-2.08-2.42-2.08a2.52,2.52,0,0,0-2.38,1.1l-1-.87a3.66,3.66,0,0,1,3.35-1.42c2.56,0,3.79,1.12,3.79,3.15V344Zm0-4.37h-2.63c-1.42,0-2.14.56-2.14,1.67s.68,1.62,2.2,1.62a2.83,2.83,0,0,0,2.09-.64,2.15,2.15,0,0,0,.48-1.63Z"/><path d="M550.22,336.29a2,2,0,0,0-1.64-.69,2.32,2.32,0,0,0-2.27,2.54V344h-1.38v-9.46h1.38v1.15a3.18,3.18,0,0,1,2.66-1.27,2.91,2.91,0,0,1,2.27.89Z"/><path d="M559.08,344v-5.83a2.34,2.34,0,1,0-4.67,0V344H553v-9.46h1.39v1a3.42,3.42,0,0,1,2.65-1.15,3.29,3.29,0,0,1,2.42.89,3.45,3.45,0,0,1,1,2.63V344Z"/><path d="M563.75,331.79v-1.55h1.56v1.55Zm.08,12.16v-9.46h1.38V344Z"/><path d="M574.73,344v-5.83a2.34,2.34,0,1,0-4.67,0V344h-1.39v-9.46h1.39v1a3.42,3.42,0,0,1,2.65-1.15,3.29,3.29,0,0,1,2.42.89,3.45,3.45,0,0,1,1,2.63V344Z"/><path d="M582.52,348.29a4.13,4.13,0,0,1-3.21-1.27l.9-.88a2.92,2.92,0,0,0,2.27.94c1.82,0,2.59-1.29,2.59-2.9V342.7a3,3,0,0,1-2.65,1.23,3.26,3.26,0,0,1-2.29-.85,7.32,7.32,0,0,1,0-7.88,3.31,3.31,0,0,1,2.31-.83,3,3,0,0,1,2.65,1.23v-1.11h1.37v9.74A3.76,3.76,0,0,1,582.52,348.29Zm.21-12.69c-2.06,0-2.37,1.77-2.37,3.54s.31,3.54,2.37,3.54,2.34-1.77,2.34-3.54S584.79,335.6,582.73,335.6Z"/><path d="M599.22,344.06a4.72,4.72,0,0,1-3.42-1.34c-1.29-1.29-1.36-2.48-1.36-5.62s.07-4.32,1.36-5.61a4.69,4.69,0,0,1,3.42-1.35,4.63,4.63,0,0,1,4.75,4.08h-1.5a3.22,3.22,0,0,0-3.25-2.77,3.25,3.25,0,0,0-2.36,1c-.87.88-1,1.88-1,4.69s.09,3.81,1,4.69a3.21,3.21,0,0,0,2.36,1,3.25,3.25,0,0,0,3.29-2.76H604A4.65,4.65,0,0,1,599.22,344.06Z"/><path d="M613,343a4,4,0,0,1-5.43,0,6.74,6.74,0,0,1,0-7.53,4,4,0,0,1,5.43,0,6.74,6.74,0,0,1,0,7.53Zm-1-6.69a2.4,2.4,0,0,0-1.73-.69,2.36,2.36,0,0,0-1.72.69,4.14,4.14,0,0,0-.77,2.93,4.07,4.07,0,0,0,.77,2.92,2.36,2.36,0,0,0,1.72.69,2.4,2.4,0,0,0,1.73-.69,6.08,6.08,0,0,0,0-5.85Z"/><path d="M629.29,344v-5.83a2.35,2.35,0,1,0-4.69-.15v6h-1.38v-5.83a2.21,2.21,0,0,0-2.33-2.52,2.25,2.25,0,0,0-2.37,2.52V344h-1.38v-9.46h1.38v1a3.5,3.5,0,0,1,2.68-1.15,3.12,3.12,0,0,1,2.9,1.58,3.62,3.62,0,0,1,3.11-1.58,3.46,3.46,0,0,1,2.45.89,3.51,3.51,0,0,1,1,2.63V344Z"/><path d="M646.19,344v-5.83a2.35,2.35,0,1,0-4.69-.15v6h-1.38v-5.83a2.21,2.21,0,0,0-2.33-2.52,2.25,2.25,0,0,0-2.37,2.52V344H634v-9.46h1.38v1a3.5,3.5,0,0,1,2.68-1.15A3.12,3.12,0,0,1,641,336a3.62,3.62,0,0,1,3.11-1.58,3.46,3.46,0,0,1,2.45.89,3.51,3.51,0,0,1,1,2.63V344Z"/><path d="M656.92,344v-1.06a3.46,3.46,0,0,1-2.67,1.17,3.41,3.41,0,0,1-2.45-.88,3.56,3.56,0,0,1-1-2.66v-6h1.39v5.82c0,1.67.88,2.52,2.3,2.52a2.24,2.24,0,0,0,2.37-2.52v-5.82h1.38V344Z"/><path d="M667.8,344v-5.83a2.34,2.34,0,1,0-4.67,0V344h-1.39v-9.46h1.39v1a3.42,3.42,0,0,1,2.65-1.15,3.29,3.29,0,0,1,2.42.89,3.45,3.45,0,0,1,1,2.63V344Z"/><path d="M672.47,331.79v-1.55H674v1.55Zm.08,12.16v-9.46h1.38V344Z"/><path d="M680.05,344a2.33,2.33,0,0,1-2.43-2.54v-5.87h-1.19v-1.05h1.19v-2.91H679v2.91h2v1.05h-2v5.83c0,.86.4,1.38,1.29,1.38H681V344Z"/><path d="M686.12,346.23a2.75,2.75,0,0,1-.67,1.12,2.6,2.6,0,0,1-1.85.65H683v-1.23h.42c1,0,1.25-.31,1.56-1.17l.67-1.85-3.4-9.26h1.5l2.59,7.59,2.58-7.59h1.5Z"/><rect class="cls-6" x="724" y="330.92" width="14" height="14"/><path d="M760.1,342.48a4.81,4.81,0,0,1-3.65,1.58,4.7,4.7,0,0,1-3.42-1.34c-1.29-1.29-1.37-2.48-1.37-5.62s.08-4.32,1.37-5.61a4.67,4.67,0,0,1,3.42-1.35,4.72,4.72,0,0,1,4.79,4.1h-1.47a3.27,3.27,0,0,0-3.32-2.79,3.23,3.23,0,0,0-2.37,1c-.86.88-1,1.88-1,4.69s.1,3.81,1,4.69a3.19,3.19,0,0,0,2.37,1,3.31,3.31,0,0,0,2.59-1.17,3.63,3.63,0,0,0,.77-2.48V338h-3.36v-1.25h4.82V339A4.61,4.61,0,0,1,760.1,342.48Z"/><path d="M769.71,336.29a2,2,0,0,0-1.63-.69,2.31,2.31,0,0,0-2.27,2.54V344h-1.38v-9.46h1.38v1.15a3.18,3.18,0,0,1,2.65-1.27,2.88,2.88,0,0,1,2.27.89Z"/><path d="M778.59,343a3.94,3.94,0,0,1-5.42,0,6.74,6.74,0,0,1,0-7.53,3.94,3.94,0,0,1,5.42,0,6.69,6.69,0,0,1,0,7.53Zm-1-6.69a2.37,2.37,0,0,0-1.73-.69,2.34,2.34,0,0,0-1.71.69,4.14,4.14,0,0,0-.77,2.93,4.07,4.07,0,0,0,.77,2.92,2.34,2.34,0,0,0,1.71.69,2.37,2.37,0,0,0,1.73-.69,6.08,6.08,0,0,0,0-5.85Z"/><path d="M788.69,344v-1.06a3.46,3.46,0,0,1-2.67,1.17,3.41,3.41,0,0,1-2.45-.88,3.56,3.56,0,0,1-1-2.66v-6H784v5.82c0,1.67.88,2.52,2.3,2.52a2.24,2.24,0,0,0,2.37-2.52v-5.82h1.38V344Z"/><path d="M799.88,343.23a3.27,3.27,0,0,1-2.31.83,3.08,3.08,0,0,1-2.67-1.23v5.35h-1.39V334.49h1.39v1.11a3.06,3.06,0,0,1,2.67-1.23,3.27,3.27,0,0,1,2.31.83,7.58,7.58,0,0,1,0,8Zm-2.6-7.63c-2.07,0-2.38,1.77-2.38,3.62s.31,3.61,2.38,3.61,2.37-1.77,2.37-3.61S799.34,335.6,797.28,335.6Z"/><path d="M813.3,344.06a4.73,4.73,0,0,1-3.43-1.34c-1.28-1.29-1.36-2.48-1.36-5.62s.08-4.32,1.36-5.61a4.69,4.69,0,0,1,3.43-1.35,4.63,4.63,0,0,1,4.74,4.08h-1.49a3.22,3.22,0,0,0-3.25-2.77,3.28,3.28,0,0,0-2.37,1c-.86.88-1,1.88-1,4.69s.1,3.81,1,4.69a3.35,3.35,0,0,0,5.65-1.8H818A4.64,4.64,0,0,1,813.3,344.06Z"/><path d="M827.1,343a3.94,3.94,0,0,1-5.42,0,6.74,6.74,0,0,1,0-7.53,3.94,3.94,0,0,1,5.42,0,6.74,6.74,0,0,1,0,7.53Zm-1-6.69a2.38,2.38,0,0,0-1.73-.69,2.34,2.34,0,0,0-1.71.69,4.14,4.14,0,0,0-.77,2.93,4.07,4.07,0,0,0,.77,2.92,2.34,2.34,0,0,0,1.71.69,2.38,2.38,0,0,0,1.73-.69,6.08,6.08,0,0,0,0-5.85Z"/><path d="M837.27,344v-5.83a2.34,2.34,0,1,0-4.67,0V344h-1.39v-9.46h1.39v1a3.42,3.42,0,0,1,2.65-1.15,3.29,3.29,0,0,1,2.42.89,3.45,3.45,0,0,1,1,2.63V344Z"/><path d="M845,344.06a5.12,5.12,0,0,1-3.88-1.36l.92-.93a3.91,3.91,0,0,0,2.94,1.1c1.58,0,2.52-.56,2.52-1.67,0-.85-.46-1.29-1.58-1.39l-1.55-.13c-1.85-.16-2.83-1-2.83-2.54s1.44-2.77,3.48-2.77a5.35,5.35,0,0,1,3.4,1l-.9.9a4,4,0,0,0-2.52-.75c-1.38,0-2.12.58-2.12,1.56s.52,1.27,1.7,1.39l1.48.13c1.65.15,2.78.77,2.78,2.56S847.31,344.06,845,344.06Z"/><path d="M857.53,344v-1.06a3.45,3.45,0,0,1-2.67,1.17,3.39,3.39,0,0,1-2.44-.88,3.56,3.56,0,0,1-1-2.66v-6h1.38v5.82c0,1.67.89,2.52,2.31,2.52a2.23,2.23,0,0,0,2.36-2.52v-5.82h1.39V344Z"/><path d="M864.72,344a2.25,2.25,0,0,1-2.4-2.52V330.26h1.39v11.11c0,.92.3,1.38,1.26,1.38h.75V344Z"/><path d="M870.67,344a2.33,2.33,0,0,1-2.43-2.54v-5.87h-1.19v-1.05h1.19v-2.91h1.39v2.91h2v1.05h-2v5.83c0,.86.4,1.38,1.29,1.38h.73V344Z"/><path d="M879.76,344V343a4.35,4.35,0,0,1-5.4.16,2.68,2.68,0,0,1-.72-1.93c0-1.67,1.18-2.73,3.29-2.73h2.83v-.9c0-1.37-.67-2.08-2.42-2.08a2.54,2.54,0,0,0-2.39,1.1l-.94-.87a3.66,3.66,0,0,1,3.35-1.42c2.55,0,3.78,1.12,3.78,3.15V344Zm0-4.37h-2.64c-1.42,0-2.13.56-2.13,1.67s.67,1.62,2.19,1.62a2.85,2.85,0,0,0,2.1-.64,2.19,2.19,0,0,0,.48-1.63Z"/><path d="M887.16,344a2.32,2.32,0,0,1-2.42-2.54v-5.87h-1.2v-1.05h1.2v-2.91h1.38v2.91h2v1.05h-2v5.83c0,.86.41,1.38,1.29,1.38h.73V344Z"/><path d="M890.81,331.79v-1.55h1.56v1.55Zm.08,12.16v-9.46h1.38V344Z"/><path d="M901.81,343a3.94,3.94,0,0,1-5.42,0,6.69,6.69,0,0,1,0-7.53,3.94,3.94,0,0,1,5.42,0,6.74,6.74,0,0,1,0,7.53Zm-1-6.69a2.38,2.38,0,0,0-1.73-.69,2.32,2.32,0,0,0-1.71.69,5.94,5.94,0,0,0,0,5.85,2.32,2.32,0,0,0,1.71.69,2.38,2.38,0,0,0,1.73-.69,6.08,6.08,0,0,0,0-5.85Z"/><path d="M912,344v-5.83a2.34,2.34,0,1,0-4.67,0V344h-1.39v-9.46h1.39v1a3.42,3.42,0,0,1,2.65-1.15,3.29,3.29,0,0,1,2.42.89,3.45,3.45,0,0,1,1,2.63V344Z"/><rect class="cls-7" x="946" y="330.92" width="14" height="14"/><path d="M979.48,344V337.7H973V344h-1.46V330.26H973v6.13h6.5v-6.13h1.46V344Z"/><path d="M990.73,343a4,4,0,0,1-5.43,0,6.74,6.74,0,0,1,0-7.53,4,4,0,0,1,5.43,0,6.74,6.74,0,0,1,0,7.53Zm-1-6.69a2.41,2.41,0,0,0-1.74-.69,2.35,2.35,0,0,0-1.71.69,4.14,4.14,0,0,0-.76,2.93,4.07,4.07,0,0,0,.76,2.92,2.35,2.35,0,0,0,1.71.69,2.41,2.41,0,0,0,1.74-.69,6.08,6.08,0,0,0,0-5.85Z"/><path d="M997.49,344a2.32,2.32,0,0,1-2.42-2.54v-5.87h-1.19v-1.05h1.19v-2.91h1.39v2.91h2v1.05h-2v5.83c0,.86.4,1.38,1.28,1.38h.73V344Z"/><path d="M1010.28,331.56V344h-1.46V331.56h-4v-1.3h9.38v1.3Z"/><path d="M1017.41,339.58c0,2.08,1,3.27,2.79,3.27a3.12,3.12,0,0,0,2.48-1.08l.94.83a4.37,4.37,0,0,1-3.46,1.46c-2.52,0-4.13-1.5-4.13-4.84,0-3.08,1.48-4.85,3.88-4.85s3.88,1.75,3.88,4.6v.61Zm4.71-2.61a2.42,2.42,0,0,0-4.42,0,3.6,3.6,0,0,0-.29,1.57h5A3.89,3.89,0,0,0,1022.12,337Z"/><path d="M1032.1,344V343a4.35,4.35,0,0,1-5.4.16,2.64,2.64,0,0,1-.72-1.93c0-1.67,1.18-2.73,3.29-2.73h2.83v-.9c0-1.37-.67-2.08-2.42-2.08a2.54,2.54,0,0,0-2.39,1.1l-.94-.87a3.66,3.66,0,0,1,3.35-1.42c2.55,0,3.78,1.12,3.78,3.15V344Zm0-4.37h-2.64c-1.42,0-2.13.56-2.13,1.67s.67,1.62,2.19,1.62a2.85,2.85,0,0,0,2.1-.64,2.19,2.19,0,0,0,.48-1.63Z"/><path d="M1049,344v-5.83a2.35,2.35,0,1,0-4.69-.15v6h-1.39v-5.83a2.2,2.2,0,0,0-2.32-2.52,2.24,2.24,0,0,0-2.37,2.52V344h-1.38v-9.46h1.38v1a3.48,3.48,0,0,1,2.67-1.15,3.13,3.13,0,0,1,2.91,1.58,3.61,3.61,0,0,1,3.11-1.58,3.46,3.46,0,0,1,2.44.88,3.51,3.51,0,0,1,1,2.64V344Z"/><rect class="cls-8" x="1077" y="330.92" width="14" height="14"/><path d="M1113.33,342.72a4.66,4.66,0,0,1-3.4,1.34,4.7,4.7,0,0,1-3.42-1.34c-1.29-1.29-1.37-2.48-1.37-5.62s.08-4.32,1.37-5.61a4.67,4.67,0,0,1,3.42-1.35,4.62,4.62,0,0,1,3.4,1.35c1.29,1.29,1.39,2.48,1.39,5.61S1114.62,341.43,1113.33,342.72Zm-1-10.31a3.29,3.29,0,0,0-2.37-1,3.25,3.25,0,0,0-2.36,1c-.87.88-1,1.88-1,4.69s.09,3.81,1,4.69a3.21,3.21,0,0,0,2.36,1,3.25,3.25,0,0,0,2.37-1c.86-.88,1-1.88,1-4.69S1113.16,333.29,1112.3,332.41Z"/><path d="M1124,344v-5.83a2.2,2.2,0,0,0-2.32-2.52,2.23,2.23,0,0,0-2.35,2.52V344h-1.38v-9.46h1.38v1a3.46,3.46,0,0,1,2.66-1.15,3.3,3.3,0,0,1,2.42.89,3.48,3.48,0,0,1,1,2.63V344Z"/><path d="M1129.58,339.58c0,2.08,1,3.27,2.79,3.27a3.12,3.12,0,0,0,2.48-1.08l.94.83a4.37,4.37,0,0,1-3.46,1.46c-2.52,0-4.14-1.5-4.14-4.84,0-3.08,1.48-4.85,3.89-4.85s3.88,1.75,3.88,4.6v.61Zm4.71-2.61a2.42,2.42,0,0,0-4.42,0,3.6,3.6,0,0,0-.29,1.57h5A3.89,3.89,0,0,0,1134.29,337Z"/><path d="M1138.63,339.41v-1.29h5.27v1.29Z"/><path d="M1149.75,344a2.33,2.33,0,0,1-2.43-2.54v-5.87h-1.19v-1.05h1.19v-2.91h1.39v2.91h2v1.05h-2v5.83c0,.86.4,1.38,1.29,1.38h.73V344Z"/><path d="M1159.55,343a3.94,3.94,0,0,1-5.42,0,6.74,6.74,0,0,1,0-7.53,3.94,3.94,0,0,1,5.42,0,6.69,6.69,0,0,1,0,7.53Zm-1-6.69a2.38,2.38,0,0,0-1.73-.69,2.34,2.34,0,0,0-1.71.69,4.14,4.14,0,0,0-.77,2.93,4.07,4.07,0,0,0,.77,2.92,2.34,2.34,0,0,0,1.71.69,2.38,2.38,0,0,0,1.73-.69,6.08,6.08,0,0,0,0-5.85Z"/><path d="M1163.4,339.41v-1.29h5.27v1.29Z"/><path d="M1179.78,342.72a5,5,0,0,1-6.83,0c-1.29-1.29-1.36-2.48-1.36-5.62s.07-4.32,1.36-5.61a5,5,0,0,1,6.83,0c1.28,1.29,1.38,2.48,1.38,5.61S1181.06,341.43,1179.78,342.72Zm-1-10.31a3.39,3.39,0,0,0-4.73,0c-.87.88-1,1.88-1,4.69s.09,3.81,1,4.69a3.39,3.39,0,0,0,4.73,0c.86-.88,1-1.88,1-4.69S1179.6,333.29,1178.74,332.41Z"/><path d="M1190.41,344v-5.83a2.34,2.34,0,1,0-4.67,0V344h-1.39v-9.46h1.39v1a3.42,3.42,0,0,1,2.65-1.15,3.3,3.3,0,0,1,2.42.89,3.48,3.48,0,0,1,1,2.63V344Z"/><path d="M1196,339.58c0,2.08,1,3.27,2.79,3.27a3.1,3.1,0,0,0,2.48-1.08l.94.83a4.35,4.35,0,0,1-3.46,1.46c-2.52,0-4.13-1.5-4.13-4.84,0-3.08,1.48-4.85,3.88-4.85s3.88,1.75,3.88,4.6v.61Zm4.71-2.61a2.42,2.42,0,0,0-4.42,0,3.6,3.6,0,0,0-.29,1.57h5A3.89,3.89,0,0,0,1200.73,337Z"/><path d="M1214.65,344.06a4.7,4.7,0,0,1-3.42-1.34c-1.29-1.29-1.37-2.48-1.37-5.62s.08-4.32,1.37-5.61a4.87,4.87,0,0,1,8.17,2.73h-1.5a3.22,3.22,0,0,0-3.25-2.77,3.25,3.25,0,0,0-2.36,1c-.87.88-1,1.88-1,4.69s.1,3.81,1,4.69a3.21,3.21,0,0,0,2.36,1,3.26,3.26,0,0,0,3.29-2.76h1.46A4.65,4.65,0,0,1,1214.65,344.06Z"/><path d="M1228.46,343a4,4,0,0,1-5.43,0,6.74,6.74,0,0,1,0-7.53,4,4,0,0,1,5.43,0,6.74,6.74,0,0,1,0,7.53Zm-1-6.69a2.37,2.37,0,0,0-1.73-.69,2.34,2.34,0,0,0-1.71.69,4.14,4.14,0,0,0-.77,2.93,4.07,4.07,0,0,0,.77,2.92,2.34,2.34,0,0,0,1.71.69,2.37,2.37,0,0,0,1.73-.69,6.08,6.08,0,0,0,0-5.85Z"/><path d="M1238.62,344v-5.83a2.2,2.2,0,0,0-2.32-2.52,2.23,2.23,0,0,0-2.35,2.52V344h-1.38v-9.46H1234v1a3.46,3.46,0,0,1,2.66-1.15,3.3,3.3,0,0,1,2.42.89,3.48,3.48,0,0,1,1,2.63V344Z"/><path d="M1246.35,344.06a5.15,5.15,0,0,1-3.88-1.36l.92-.93a3.91,3.91,0,0,0,2.94,1.1c1.58,0,2.52-.56,2.52-1.67,0-.85-.46-1.29-1.57-1.39l-1.56-.13c-1.85-.16-2.83-1-2.83-2.54s1.44-2.77,3.48-2.77a5.38,5.38,0,0,1,3.41,1l-.91.9a4,4,0,0,0-2.52-.75c-1.38,0-2.11.58-2.11,1.56s.52,1.27,1.69,1.39l1.48.13c1.65.15,2.79.77,2.79,2.56S1248.66,344.06,1246.35,344.06Z"/><path d="M1258.89,344v-1.06a3.46,3.46,0,0,1-2.67,1.17,3.41,3.41,0,0,1-2.45-.88,3.56,3.56,0,0,1-1-2.66v-6h1.39v5.82c0,1.67.88,2.52,2.3,2.52a2.24,2.24,0,0,0,2.37-2.52v-5.82h1.38V344Z"/><path d="M1266.08,344a2.25,2.25,0,0,1-2.4-2.52V330.26h1.38v11.11c0,.92.31,1.38,1.27,1.38h.75V344Z"/><path d="M1272,344a2.32,2.32,0,0,1-2.42-2.54v-5.87h-1.2v-1.05h1.2v-2.91H1271v2.91h2v1.05h-2v5.83c0,.86.4,1.38,1.29,1.38h.73V344Z"/><path d="M1281.11,344V343a4.35,4.35,0,0,1-5.4.16,2.68,2.68,0,0,1-.71-1.93c0-1.67,1.17-2.73,3.29-2.73h2.82v-.9c0-1.37-.67-2.08-2.42-2.08a2.52,2.52,0,0,0-2.38,1.1l-1-.87a3.66,3.66,0,0,1,3.35-1.42c2.56,0,3.79,1.12,3.79,3.15V344Zm0-4.37h-2.63c-1.42,0-2.14.56-2.14,1.67s.68,1.62,2.2,1.62a2.83,2.83,0,0,0,2.09-.64,2.15,2.15,0,0,0,.48-1.63Z"/><path d="M1288.51,344a2.32,2.32,0,0,1-2.42-2.54v-5.87h-1.19v-1.05h1.19v-2.91h1.39v2.91h2v1.05h-2v5.83c0,.86.4,1.38,1.28,1.38h.73V344Z"/><path d="M1292.17,331.79v-1.55h1.55v1.55Zm.07,12.16v-9.46h1.39V344Z"/><path d="M1303.16,343a3.94,3.94,0,0,1-5.42,0,6.74,6.74,0,0,1,0-7.53,3.94,3.94,0,0,1,5.42,0,6.69,6.69,0,0,1,0,7.53Zm-1-6.69a2.38,2.38,0,0,0-1.73-.69,2.34,2.34,0,0,0-1.71.69,4.14,4.14,0,0,0-.77,2.93,4.07,4.07,0,0,0,.77,2.92,2.34,2.34,0,0,0,1.71.69,2.38,2.38,0,0,0,1.73-.69,6.08,6.08,0,0,0,0-5.85Z"/><path d="M1313.33,344v-5.83a2.2,2.2,0,0,0-2.32-2.52,2.23,2.23,0,0,0-2.35,2.52V344h-1.38v-9.46h1.38v1a3.44,3.44,0,0,1,2.65-1.15,3.33,3.33,0,0,1,2.43.89,3.48,3.48,0,0,1,1,2.63V344Z"/><rect class="cls-9" x="1345" y="330.92" width="14" height="14"/><path d="M1380.52,342.72a5,5,0,0,1-6.82,0c-1.29-1.29-1.37-2.48-1.37-5.62s.08-4.32,1.37-5.61a5,5,0,0,1,6.82,0c1.29,1.29,1.39,2.48,1.39,5.61S1381.81,341.43,1380.52,342.72Zm-1-10.31a3.39,3.39,0,0,0-4.73,0c-.86.88-1,1.88-1,4.69s.1,3.81,1,4.69a3.39,3.39,0,0,0,4.73,0c.87-.88,1-1.88,1-4.69S1380.35,333.29,1379.48,332.41Z"/><path d="M1387.75,344a2.32,2.32,0,0,1-2.42-2.54v-5.87h-1.2v-1.05h1.2v-2.91h1.38v2.91h2v1.05h-2v5.83c0,.86.4,1.38,1.29,1.38h.73V344Z"/><path d="M1397.53,344V338.1c0-1.67-.86-2.5-2.3-2.5a2.21,2.21,0,0,0-2.37,2.5V344h-1.38V330.26h1.38v5.26a3.44,3.44,0,0,1,2.66-1.15,3.19,3.19,0,0,1,3.4,3.5V344Z"/><path d="M1403.15,339.58c0,2.08,1,3.27,2.79,3.27a3.12,3.12,0,0,0,2.48-1.08l.94.83a4.37,4.37,0,0,1-3.46,1.46c-2.52,0-4.14-1.5-4.14-4.84,0-3.08,1.48-4.85,3.89-4.85s3.88,1.75,3.88,4.6v.61Zm4.71-2.61a2.42,2.42,0,0,0-4.42,0,3.6,3.6,0,0,0-.29,1.57h5A3.89,3.89,0,0,0,1407.86,337Z"/><path d="M1417.76,336.29a2,2,0,0,0-1.64-.69,2.31,2.31,0,0,0-2.26,2.54V344h-1.39v-9.46h1.39v1.15a3.16,3.16,0,0,1,2.65-1.27,2.9,2.9,0,0,1,2.27.89Z"/><path d="M1430.7,338.31h-3.64V344h-1.46V330.26h5.1a4,4,0,1,1,0,8.05Zm-.12-6.75h-3.52V337h3.52a2.73,2.73,0,1,0,0-5.45Z"/><path d="M1442.75,336.29a2,2,0,0,0-1.63-.69,2.31,2.31,0,0,0-2.27,2.54V344h-1.39v-9.46h1.39v1.15a3.18,3.18,0,0,1,2.65-1.27,2.88,2.88,0,0,1,2.27.89Z"/><path d="M1451.63,343a3.94,3.94,0,0,1-5.42,0,6.74,6.74,0,0,1,0-7.53,3.94,3.94,0,0,1,5.42,0,6.69,6.69,0,0,1,0,7.53Zm-1-6.69a2.37,2.37,0,0,0-1.73-.69,2.34,2.34,0,0,0-1.71.69,4.14,4.14,0,0,0-.77,2.93,4.07,4.07,0,0,0,.77,2.92,2.34,2.34,0,0,0,1.71.69,2.37,2.37,0,0,0,1.73-.69,6.08,6.08,0,0,0,0-5.85Z"/><path d="M1454.73,348.19h-1V347h.75c1,0,1.27-.46,1.27-1.38V334.49h1.38v11.17A2.26,2.26,0,0,1,1454.73,348.19Zm.94-16.4v-1.55h1.56v1.55Z"/><path d="M1461.48,339.58c0,2.08,1,3.27,2.79,3.27a3.12,3.12,0,0,0,2.48-1.08l.94.83a4.37,4.37,0,0,1-3.46,1.46c-2.52,0-4.14-1.5-4.14-4.84,0-3.08,1.48-4.85,3.89-4.85s3.88,1.75,3.88,4.6v.61Zm4.71-2.61a2.42,2.42,0,0,0-4.42,0,3.6,3.6,0,0,0-.29,1.57h5A3.89,3.89,0,0,0,1466.19,337Z"/><path d="M1474.47,344.06c-2.38,0-4.19-1.61-4.19-4.84s1.81-4.85,4.19-4.85a3.77,3.77,0,0,1,3.12,1.4l-.94.89a2.61,2.61,0,0,0-2.18-1.06,2.57,2.57,0,0,0-2.19,1.08,5.57,5.57,0,0,0,0,5.07,2.55,2.55,0,0,0,2.19,1.08,2.63,2.63,0,0,0,2.18-1.08l.94.91A3.74,3.74,0,0,1,1474.47,344.06Z"/><path d="M1482.88,344a2.33,2.33,0,0,1-2.43-2.54v-5.87h-1.19v-1.05h1.19v-2.91h1.39v2.91h2v1.05h-2v5.83c0,.86.4,1.38,1.28,1.38h.74V344Z"/><rect class="cls-10" x="1522" y="330.92" width="14" height="14"/><path d="M1555.79,342.71a4.62,4.62,0,0,1-3.4,1.35,4.67,4.67,0,0,1-3.42-1.35c-1.29-1.28-1.37-2.48-1.37-5.61s.08-4.33,1.37-5.61a4.67,4.67,0,0,1,3.42-1.35,4.62,4.62,0,0,1,3.4,1.35c1.29,1.28,1.39,2.48,1.39,5.61S1557.08,341.43,1555.79,342.71Zm-1-10.3a3.25,3.25,0,0,0-2.36-1,3.29,3.29,0,0,0-2.37,1c-.86.88-1,1.88-1,4.69s.1,3.81,1,4.69a3.25,3.25,0,0,0,2.37,1,3.21,3.21,0,0,0,2.36-1c.87-.88,1-1.88,1-4.69S1555.62,333.29,1554.75,332.41Z"/><path d="M1566.35,344v-1.06a3.48,3.48,0,0,1-2.68,1.17,3.4,3.4,0,0,1-2.44-.88,3.56,3.56,0,0,1-1-2.66v-6h1.39v5.82c0,1.67.88,2.52,2.3,2.52a2.25,2.25,0,0,0,2.37-2.52v-5.82h1.38V344Z"/><path d="M1573.83,344a2.33,2.33,0,0,1-2.43-2.54v-5.87h-1.19v-1.05h1.19v-2.91h1.39v2.91h2v1.05h-2v5.83c0,.86.4,1.38,1.29,1.38h.73V344Z"/><path d="M1582.84,336.29a2,2,0,0,0-1.63-.69,2.31,2.31,0,0,0-2.27,2.54V344h-1.39v-9.46h1.39v1.15a3.18,3.18,0,0,1,2.65-1.27,2.91,2.91,0,0,1,2.27.88Z"/><path d="M1586.51,339.58c0,2.08,1,3.27,2.79,3.27a3.1,3.1,0,0,0,2.48-1.08l.94.83a4.35,4.35,0,0,1-3.46,1.46c-2.52,0-4.13-1.5-4.13-4.84,0-3.08,1.48-4.85,3.88-4.85s3.89,1.75,3.89,4.6v.61Zm4.71-2.61a2.42,2.42,0,0,0-4.42,0,3.6,3.6,0,0,0-.29,1.57h5A3.73,3.73,0,0,0,1591.22,337Z"/><path d="M1601.2,344V343a4.35,4.35,0,0,1-5.4.16,2.68,2.68,0,0,1-.71-1.93c0-1.67,1.17-2.73,3.29-2.73h2.82v-.9c0-1.37-.67-2.08-2.42-2.08a2.52,2.52,0,0,0-2.38,1.1l-1-.87a3.66,3.66,0,0,1,3.35-1.42c2.56,0,3.79,1.12,3.79,3.15V344Zm0-4.37h-2.63c-1.42,0-2.14.56-2.14,1.67s.68,1.62,2.2,1.62a2.83,2.83,0,0,0,2.09-.64,2.15,2.15,0,0,0,.48-1.63Z"/><path d="M1609.62,344.06c-2.38,0-4.19-1.61-4.19-4.84s1.81-4.85,4.19-4.85a3.77,3.77,0,0,1,3.12,1.4l-1,.89a2.76,2.76,0,0,0-4.36,0,5.57,5.57,0,0,0,0,5.07,2.57,2.57,0,0,0,2.19,1.08,2.6,2.6,0,0,0,2.17-1.08l1,.91A3.77,3.77,0,0,1,1609.62,344.06Z"/><path d="M1621.43,344V338.1c0-1.67-.87-2.5-2.31-2.5a2.21,2.21,0,0,0-2.37,2.5V344h-1.38V330.26h1.38v5.26a3.46,3.46,0,0,1,2.66-1.15,3.19,3.19,0,0,1,3.4,3.5V344Z"/><rect class="cls-11" x="1648" y="330.92" width="14" height="14"/><path d="M1686.18,344h-1.36l-3-11-3,11h-1.36l-3.5-13.69h1.56l2.67,11,3-11h1.3l3,11,2.67-11h1.56Z"/><path d="M1697.79,343a3.94,3.94,0,0,1-5.42,0,6.74,6.74,0,0,1,0-7.53,3.94,3.94,0,0,1,5.42,0,6.69,6.69,0,0,1,0,7.53Zm-1-6.69a2.37,2.37,0,0,0-1.73-.69,2.34,2.34,0,0,0-1.71.69,4.14,4.14,0,0,0-.77,2.93,4.07,4.07,0,0,0,.77,2.92,2.34,2.34,0,0,0,1.71.69,2.37,2.37,0,0,0,1.73-.69,6.08,6.08,0,0,0,0-5.85Z"/><path d="M1707.2,336.29a2,2,0,0,0-1.64-.69,2.32,2.32,0,0,0-2.27,2.54V344h-1.38v-9.46h1.38v1.15a3.18,3.18,0,0,1,2.66-1.27,2.9,2.9,0,0,1,2.26.88Z"/><path d="M1716.23,344l-3-4.85-1.84,2.12V344H1710V330.26h1.39v9.15l4.26-4.92h1.73l-3.21,3.61,3.77,5.85Z"/><path d="M1723.29,344.06a5.16,5.16,0,0,1-3.89-1.36l.93-.93a3.9,3.9,0,0,0,2.94,1.1c1.57,0,2.52-.56,2.52-1.67,0-.85-.47-1.29-1.58-1.39l-1.56-.13c-1.84-.16-2.82-1-2.82-2.54s1.44-2.77,3.48-2.77a5.37,5.37,0,0,1,3.4,1l-.91.9a4,4,0,0,0-2.51-.75c-1.39,0-2.12.58-2.12,1.56s.52,1.27,1.69,1.39l1.48.13c1.66.15,2.79.77,2.79,2.56S1725.59,344.06,1723.29,344.06Z"/><path d="M1735.9,344V338.1c0-1.67-.87-2.5-2.31-2.5a2.2,2.2,0,0,0-2.36,2.5V344h-1.39V330.26h1.39v5.26a3.42,3.42,0,0,1,2.65-1.15,3.19,3.19,0,0,1,3.4,3.5V344Z"/><path d="M1746.72,343a3.94,3.94,0,0,1-5.42,0,6.74,6.74,0,0,1,0-7.53,3.94,3.94,0,0,1,5.42,0,6.69,6.69,0,0,1,0,7.53Zm-1-6.69a2.38,2.38,0,0,0-1.73-.69,2.34,2.34,0,0,0-1.71.69,4.14,4.14,0,0,0-.77,2.93,4.07,4.07,0,0,0,.77,2.92,2.34,2.34,0,0,0,1.71.69,2.38,2.38,0,0,0,1.73-.69,6.08,6.08,0,0,0,0-5.85Z"/><path d="M1757.2,343.23a3.27,3.27,0,0,1-2.31.83,3.09,3.09,0,0,1-2.67-1.23v5.34h-1.38V334.49h1.38v1.11a3.07,3.07,0,0,1,2.67-1.23,3.27,3.27,0,0,1,2.31.83,7.58,7.58,0,0,1,0,8Zm-2.59-7.63c-2.08,0-2.39,1.77-2.39,3.62s.31,3.61,2.39,3.61,2.36-1.77,2.36-3.61S1756.66,335.6,1754.61,335.6Z"/></svg>