<svg id="Layer_1" data-name="Layer 1" xmlns="http://www.w3.org/2000/svg" xmlns:xlink="http://www.w3.org/1999/xlink" viewBox="0 0 1895.82 343.25"><defs><style>.cls-1,.cls-4{fill:none;}.cls-2{clip-path:url(#clip-path);}.cls-3{fill:#ffa600;}.cls-4{stroke:#fff;stroke-linejoin:round;stroke-width:0.75px;}.cls-5{fill:#ff7c43;}.cls-6{fill:#665191;}.cls-7{fill:#14a594;}.cls-8{fill:#f95d6a;}.cls-9{fill:#003f5c;}.cls-10{fill:#a05195;}.cls-11{fill:#d45087;}.cls-12{fill:#70ad47;}.cls-13{fill:#185876;}.cls-14{clip-path:url(#clip-path-2);}.cls-15{fill:#fff;}.cls-16{clip-path:url(#clip-path-3);}.cls-17{clip-path:url(#clip-path-4);}.cls-18{clip-path:url(#clip-path-5);}.cls-19{clip-path:url(#clip-path-6);}.cls-20{clip-path:url(#clip-path-7);}.cls-21{clip-path:url(#clip-path-8);}.cls-22{clip-path:url(#clip-path-9);}.cls-23{clip-path:url(#clip-path-10);}.cls-24{clip-path:url(#clip-path-11);}</style><clipPath id="clip-path" transform="translate(-13.11 -9.35)"><rect class="cls-1" x="13" y="9.24" width="1897" height="237.97"/></clipPath><clipPath id="clip-path-2" transform="translate(-13.11 -9.35)"><rect class="cls-1" x="464.85" y="217.34" width="361.29" height="26.01"/></clipPath><clipPath id="clip-path-3" transform="translate(-13.11 -9.35)"><rect class="cls-1" x="1009.19" y="217.34" width="360.32" height="26.01"/></clipPath><clipPath id="clip-path-4" transform="translate(-13.11 -9.35)"><rect class="cls-1" x="1699.97" y="217.34" width="210.03" height="26.01"/></clipPath><clipPath id="clip-path-5" transform="translate(-13.11 -9.35)"><rect class="cls-1" x="1523.66" y="98.84" width="290.96" height="26.01"/></clipPath><clipPath id="clip-path-6" transform="translate(-13.11 -9.35)"><rect class="cls-1" x="1523.66" y="217.34" width="290.96" height="26.01"/></clipPath><clipPath id="clip-path-7" transform="translate(-13.11 -9.35)"><rect class="cls-1" x="13" y="217.34" width="210.99" height="26.01"/></clipPath><clipPath id="clip-path-8" transform="translate(-13.11 -9.35)"><rect class="cls-1" x="1612.3" y="98.84" width="289.99" height="26.01"/></clipPath><clipPath id="clip-path-9" transform="translate(-13.11 -9.35)"><rect class="cls-1" x="1699.97" y="177.84" width="210.03" height="26.01"/></clipPath><clipPath id="clip-path-10" transform="translate(-13.11 -9.35)"><rect class="cls-1" x="1699.97" y="98.84" width="210.03" height="26.01"/></clipPath><clipPath id="clip-path-11" transform="translate(-13.11 -9.35)"><rect class="cls-1" x="1612.3" y="217.34" width="289.99" height="26.01"/></clipPath></defs><title>ProjectsbyAcademicUnit</title><g class="cls-2"><rect class="cls-3" x="602.52" y="0.37" width="544.34" height="237"/><rect class="cls-4" x="602.52" y="0.38" width="544.34" height="237"/><rect class="cls-5" x="1146.86" y="0.37" width="484.61" height="237"/><rect class="cls-4" x="1146.86" y="0.38" width="484.61" height="237"/><rect class="cls-6" x="1807.78" y="197.88" width="87.67" height="39.5"/><rect class="cls-4" x="1807.78" y="197.88" width="87.67" height="39.5"/><rect class="cls-7" x="1631.47" y="0.37" width="87.67" height="118.5"/><rect class="cls-4" x="1631.47" y="0.38" width="87.67" height="118.5"/><rect class="cls-8" x="1631.47" y="118.88" width="87.67" height="118.5"/><rect class="cls-4" x="1631.47" y="118.88" width="87.67" height="118.5"/><rect class="cls-9" x="0.38" y="0.37" width="602.15" height="237"/><rect class="cls-4" x="0.38" y="0.38" width="602.15" height="237"/><rect class="cls-10" x="1719.14" y="0.37" width="88.64" height="118.5"/><rect class="cls-4" x="1719.14" y="0.38" width="88.64" height="118.5"/><rect class="cls-11" x="1807.78" y="118.88" width="87.67" height="79"/><rect class="cls-4" x="1807.78" y="118.88" width="87.67" height="79"/><rect class="cls-12" x="1807.78" y="0.37" width="87.67" height="118.5"/><rect class="cls-4" x="1807.78" y="0.38" width="87.67" height="118.5"/><rect class="cls-13" x="1719.14" y="118.88" width="88.64" height="118.5"/><rect class="cls-4" x="1719.14" y="118.88" width="88.64" height="118.5"/></g><g class="cls-14"><path class="cls-15" d="M621.29,237.57v-1.23l5.41-6.88a3.15,3.15,0,0,0,.77-2,2.39,2.39,0,1,0-4.78,0h-1.38a3.57,3.57,0,0,1,3.77-3.72,3.52,3.52,0,0,1,3.78,3.7,4.11,4.11,0,0,1-1.1,2.78l-4.8,6.13h5.9v1.23Z" transform="translate(-13.11 -9.35)"/><path class="cls-15" d="M635.06,237.69a3.85,3.85,0,0,1-4-3.9,3.72,3.72,0,0,1,2.06-3.33,3.35,3.35,0,0,1-1.79-3,3.78,3.78,0,0,1,7.55,0,3.34,3.34,0,0,1-1.77,3,3.71,3.71,0,0,1,2,3.33A3.85,3.85,0,0,1,635.06,237.69Zm0-6.59a2.68,2.68,0,1,0,2.66,2.68A2.61,2.61,0,0,0,635.06,231.1Zm0-6.13a2.33,2.33,0,0,0-2.38,2.46,2.39,2.39,0,1,0,4.77,0A2.33,2.33,0,0,0,635.06,225Z" transform="translate(-13.11 -9.35)"/><path class="cls-15" d="M641.79,237.57v-1.81h1.81v1.81Z" transform="translate(-13.11 -9.35)"/><path class="cls-15" d="M649.61,237.57h-1.46l4.76-12.49h-4.78v2.16h-1.37v-3.39h7.61v1.23Z" transform="translate(-13.11 -9.35)"/><path class="cls-15" d="M659.21,230.92a2.45,2.45,0,0,1-2.6-2.58v-2a2.6,2.6,0,1,1,5.2,0v2A2.45,2.45,0,0,1,659.21,230.92Zm1.48-4.56c0-1.05-.42-1.68-1.48-1.68s-1.51.63-1.51,1.68v1.94c0,1,.45,1.66,1.51,1.66s1.48-.62,1.48-1.66Zm.06,11.21h-1.16L666,223.85h1.16Zm6.82.14a2.47,2.47,0,0,1-2.6-2.59v-2a2.6,2.6,0,1,1,5.2,0v2A2.46,2.46,0,0,1,667.57,237.71Zm1.49-4.57c0-1-.43-1.68-1.49-1.68s-1.5.64-1.5,1.68v1.93c0,1.06.44,1.67,1.5,1.67s1.49-.61,1.49-1.67Z" transform="translate(-13.11 -9.35)"/></g><g class="cls-16"><path class="cls-15" d="M1164.88,237.57v-1.23l5.42-6.88a3.15,3.15,0,0,0,.77-2,2.39,2.39,0,1,0-4.78,0h-1.39a3.57,3.57,0,0,1,3.78-3.72,3.53,3.53,0,0,1,3.78,3.7,4.11,4.11,0,0,1-1.1,2.78l-4.8,6.13h5.9v1.23Z" transform="translate(-13.11 -9.35)"/><path class="cls-15" d="M1181.43,236.69a3.7,3.7,0,0,1-2.73,1,3.85,3.85,0,0,1-2.76-1,3.6,3.6,0,0,1-1-2.39h1.39a2.13,2.13,0,0,0,2.33,2.14,2.39,2.39,0,0,0,1.69-.63,3.8,3.8,0,0,0,.75-2.8c0-1.67-.32-3.33-2.31-3.33a2.19,2.19,0,0,0-2.27,1.35h-1.25v-7.21h6.93v1.23h-5.68v4.36a3.22,3.22,0,0,1,2.47-.95,3.27,3.27,0,0,1,2.37.87,4.94,4.94,0,0,1,1.13,3.68A4.78,4.78,0,0,1,1181.43,236.69Z" transform="translate(-13.11 -9.35)"/><path class="cls-15" d="M1185.38,237.57v-1.81h1.82v1.81Z" transform="translate(-13.11 -9.35)"/><path class="cls-15" d="M1194,237.69a3.65,3.65,0,0,1-3.82-3.95,6.77,6.77,0,0,1,.87-3.09l3.37-6.8h1.43l-3.07,6.17a3.39,3.39,0,0,1,1.45-.29,3.57,3.57,0,0,1,3.56,3.89A3.75,3.75,0,0,1,1194,237.69Zm0-6.79c-1.47,0-2.41,1.08-2.41,2.78s.94,2.77,2.41,2.77a2.8,2.8,0,0,0,0-5.55Z" transform="translate(-13.11 -9.35)"/><path class="cls-15" d="M1202.8,230.92a2.45,2.45,0,0,1-2.6-2.58v-2a2.6,2.6,0,0,1,5.2,0v2A2.45,2.45,0,0,1,1202.8,230.92Zm1.49-4.56c0-1.05-.43-1.68-1.49-1.68s-1.5.63-1.5,1.68v1.94c0,1,.44,1.66,1.5,1.66s1.49-.62,1.49-1.66Zm0,11.21h-1.15l6.43-13.72h1.16Zm6.83.14a2.47,2.47,0,0,1-2.61-2.59v-2a2.61,2.61,0,0,1,5.21,0v2A2.47,2.47,0,0,1,1211.17,237.71Zm1.48-4.57c0-1-.42-1.68-1.48-1.68s-1.51.64-1.51,1.68v1.93c0,1.06.45,1.67,1.51,1.67s1.48-.61,1.48-1.67Z" transform="translate(-13.11 -9.35)"/></g><g class="cls-17"><path class="cls-15" d="M1829.68,237.69a3.61,3.61,0,0,1-3.76-3.78v-6.4a3.76,3.76,0,1,1,7.52,0v6.4A3.62,3.62,0,0,1,1829.68,237.69Zm2.37-10.1a2.38,2.38,0,1,0-4.74,0v6.24a2.38,2.38,0,1,0,4.74,0Z" transform="translate(-13.11 -9.35)"/><path class="cls-15" d="M1836.4,237.57v-1.81h1.81v1.81Z" transform="translate(-13.11 -9.35)"/><path class="cls-15" d="M1844.94,237.69a3.85,3.85,0,0,1-4-3.9,3.74,3.74,0,0,1,2.06-3.33,3.35,3.35,0,0,1-1.79-3,3.78,3.78,0,0,1,7.56,0,3.34,3.34,0,0,1-1.78,3,3.72,3.72,0,0,1,2,3.33A3.86,3.86,0,0,1,1844.94,237.69Zm0-6.59a2.68,2.68,0,1,0,2.66,2.68A2.61,2.61,0,0,0,1844.94,231.1Zm0-6.13a2.33,2.33,0,0,0-2.39,2.46,2.39,2.39,0,1,0,4.78,0A2.34,2.34,0,0,0,1844.94,225Z" transform="translate(-13.11 -9.35)"/><path class="cls-15" d="M1853.82,230.92a2.45,2.45,0,0,1-2.6-2.58v-2a2.6,2.6,0,0,1,5.2,0v2A2.45,2.45,0,0,1,1853.82,230.92Zm1.48-4.56c0-1.05-.42-1.68-1.48-1.68s-1.5.63-1.5,1.68v1.94c0,1,.44,1.66,1.5,1.66s1.48-.62,1.48-1.66Zm.06,11.21h-1.15l6.43-13.72h1.16Zm6.82.14a2.47,2.47,0,0,1-2.6-2.59v-2a2.61,2.61,0,0,1,5.21,0v2A2.47,2.47,0,0,1,1862.18,237.71Zm1.49-4.57c0-1-.43-1.68-1.49-1.68s-1.5.64-1.5,1.68v1.93c0,1.06.44,1.67,1.5,1.67s1.49-.61,1.49-1.67Z" transform="translate(-13.11 -9.35)"/></g><g class="cls-18"><path class="cls-15" d="M1649.66,120V118.8l5.41-6.88a3.14,3.14,0,0,0,.77-2,2.39,2.39,0,1,0-4.78,0h-1.38a3.56,3.56,0,0,1,3.77-3.72,3.52,3.52,0,0,1,3.78,3.7,4.11,4.11,0,0,1-1.1,2.77l-4.8,6.13h5.9V120Z" transform="translate(-13.11 -9.35)"/><path class="cls-15" d="M1660.1,120v-1.81h1.81V120Z" transform="translate(-13.11 -9.35)"/><path class="cls-15" d="M1668.44,120.17c-2.15,0-3.91-1.14-4-3.63h1.38a2.42,2.42,0,0,0,2.64,2.39,2.51,2.51,0,0,0,2.64-2.66,2.38,2.38,0,0,0-2.69-2.65h-.29V112.4h.29a2.2,2.2,0,0,0,2.44-2.48,2.43,2.43,0,0,0-4.85-.22h-1.39a3.64,3.64,0,0,1,3.85-3.52,3.55,3.55,0,0,1,3.78,3.72,3.08,3.08,0,0,1-1.85,3,3.21,3.21,0,0,1,2.1,3.35A3.72,3.72,0,0,1,1668.44,120.17Z" transform="translate(-13.11 -9.35)"/><path class="cls-15" d="M1677.52,113.38a2.45,2.45,0,0,1-2.6-2.58v-2a2.6,2.6,0,1,1,5.2,0v2A2.45,2.45,0,0,1,1677.52,113.38Zm1.48-4.56c0-1-.42-1.68-1.48-1.68s-1.5.64-1.5,1.68v1.94c0,1,.44,1.66,1.5,1.66s1.48-.62,1.48-1.66Zm.06,11.21h-1.16l6.44-13.72h1.16Zm6.82.14a2.46,2.46,0,0,1-2.6-2.59v-2a2.6,2.6,0,1,1,5.2,0v2A2.46,2.46,0,0,1,1685.88,120.17Zm1.49-4.57c0-1-.43-1.68-1.49-1.68s-1.5.64-1.5,1.68v1.93c0,1.06.44,1.67,1.5,1.67s1.49-.61,1.49-1.67Z" transform="translate(-13.11 -9.35)"/></g><g class="cls-19"><path class="cls-15" d="M1649.66,237.57v-1.23l5.41-6.88a3.15,3.15,0,0,0,.77-2,2.39,2.39,0,1,0-4.78,0h-1.38a3.57,3.57,0,0,1,3.77-3.72,3.52,3.52,0,0,1,3.78,3.7,4.11,4.11,0,0,1-1.1,2.78l-4.8,6.13h5.9v1.23Z" transform="translate(-13.11 -9.35)"/><path class="cls-15" d="M1660.1,237.57v-1.81h1.81v1.81Z" transform="translate(-13.11 -9.35)"/><path class="cls-15" d="M1668.44,237.71c-2.15,0-3.91-1.14-4-3.63h1.38a2.42,2.42,0,0,0,2.64,2.39,2.51,2.51,0,0,0,2.64-2.66,2.39,2.39,0,0,0-2.69-2.66h-.29v-1.21h.29a2.21,2.21,0,0,0,2.44-2.49,2.3,2.3,0,0,0-2.39-2.5,2.32,2.32,0,0,0-2.46,2.29h-1.39a3.64,3.64,0,0,1,3.85-3.52,3.55,3.55,0,0,1,3.78,3.71,3.09,3.09,0,0,1-1.85,3,3.21,3.21,0,0,1,2.1,3.35A3.72,3.72,0,0,1,1668.44,237.71Z" transform="translate(-13.11 -9.35)"/><path class="cls-15" d="M1677.52,230.92a2.45,2.45,0,0,1-2.6-2.58v-2a2.6,2.6,0,1,1,5.2,0v2A2.45,2.45,0,0,1,1677.52,230.92Zm1.48-4.56c0-1.05-.42-1.68-1.48-1.68s-1.5.63-1.5,1.68v1.94c0,1,.44,1.66,1.5,1.66s1.48-.62,1.48-1.66Zm.06,11.21h-1.16l6.44-13.72h1.16Zm6.82.14a2.47,2.47,0,0,1-2.6-2.59v-2a2.6,2.6,0,1,1,5.2,0v2A2.46,2.46,0,0,1,1685.88,237.71Zm1.49-4.57c0-1-.43-1.68-1.49-1.68s-1.5.64-1.5,1.68v1.93c0,1.06.44,1.67,1.5,1.67s1.49-.61,1.49-1.67Z" transform="translate(-13.11 -9.35)"/></g><g class="cls-20"><path class="cls-15" d="M22.45,237.71c-2.16,0-3.91-1.14-4-3.63h1.38a2.42,2.42,0,0,0,2.64,2.39,2.51,2.51,0,0,0,2.64-2.66,2.38,2.38,0,0,0-2.69-2.66h-.29v-1.21h.29a2.21,2.21,0,0,0,2.44-2.49,2.3,2.3,0,0,0-2.39-2.5A2.32,2.32,0,0,0,20,227.24H18.6a3.64,3.64,0,0,1,3.85-3.52,3.55,3.55,0,0,1,3.78,3.71,3.09,3.09,0,0,1-1.85,3,3.21,3.21,0,0,1,2.1,3.35A3.72,3.72,0,0,1,22.45,237.71Z" transform="translate(-13.11 -9.35)"/><path class="cls-15" d="M32.65,237.57V225.39l-2.57,2.26v-1.58l2.57-2.22H34v13.72Z" transform="translate(-13.11 -9.35)"/><path class="cls-15" d="M39.43,237.57v-1.81h1.81v1.81Z" transform="translate(-13.11 -9.35)"/><path class="cls-15" d="M48,237.69a3.85,3.85,0,0,1-4-3.9A3.72,3.72,0,0,1,46,230.46a3.35,3.35,0,0,1-1.79-3,3.78,3.78,0,0,1,7.55,0,3.34,3.34,0,0,1-1.77,3,3.73,3.73,0,0,1,2,3.33A3.85,3.85,0,0,1,48,237.69Zm0-6.59a2.68,2.68,0,1,0,2.66,2.68A2.61,2.61,0,0,0,48,231.1ZM48,225a2.34,2.34,0,0,0-2.39,2.46A2.39,2.39,0,1,0,48,225Z" transform="translate(-13.11 -9.35)"/><path class="cls-15" d="M56.85,230.92a2.45,2.45,0,0,1-2.6-2.58v-2a2.6,2.6,0,0,1,5.2,0v2A2.45,2.45,0,0,1,56.85,230.92Zm1.48-4.56c0-1.05-.42-1.68-1.48-1.68s-1.51.63-1.51,1.68v1.94c0,1,.45,1.66,1.51,1.66s1.48-.62,1.48-1.66Zm.06,11.21H57.23l6.44-13.72h1.16Zm6.82.14a2.47,2.47,0,0,1-2.6-2.59v-2a2.6,2.6,0,0,1,5.2,0v2A2.47,2.47,0,0,1,65.21,237.71Zm1.48-4.57c0-1-.42-1.68-1.48-1.68s-1.5.64-1.5,1.68v1.93c0,1.06.44,1.67,1.5,1.67s1.48-.61,1.48-1.67Z" transform="translate(-13.11 -9.35)"/></g><g class="cls-21"><path class="cls-15" d="M1737.81,120V118.8l5.41-6.88a3.14,3.14,0,0,0,.77-2,2.39,2.39,0,1,0-4.78,0h-1.38a3.56,3.56,0,0,1,3.77-3.72,3.52,3.52,0,0,1,3.78,3.7,4.11,4.11,0,0,1-1.1,2.77l-4.8,6.13h5.9V120Z" transform="translate(-13.11 -9.35)"/><path class="cls-15" d="M1748.25,120v-1.81h1.81V120Z" transform="translate(-13.11 -9.35)"/><path class="cls-15" d="M1756.59,120.17c-2.15,0-3.91-1.14-4-3.63H1754a2.41,2.41,0,0,0,2.63,2.39,2.52,2.52,0,0,0,2.65-2.66,2.38,2.38,0,0,0-2.7-2.65h-.29V112.4h.29a2.2,2.2,0,0,0,2.44-2.48,2.43,2.43,0,0,0-4.85-.22h-1.39a3.64,3.64,0,0,1,3.85-3.52,3.55,3.55,0,0,1,3.78,3.72,3.07,3.07,0,0,1-1.85,3,3.21,3.21,0,0,1,2.1,3.35A3.72,3.72,0,0,1,1756.59,120.17Z" transform="translate(-13.11 -9.35)"/><path class="cls-15" d="M1765.67,113.38a2.45,2.45,0,0,1-2.6-2.58v-2a2.6,2.6,0,1,1,5.2,0v2A2.45,2.45,0,0,1,1765.67,113.38Zm1.48-4.56c0-1-.42-1.68-1.48-1.68s-1.5.64-1.5,1.68v1.94c0,1,.44,1.66,1.5,1.66s1.48-.62,1.48-1.66Zm.06,11.21h-1.15l6.43-13.72h1.16Zm6.82.14a2.46,2.46,0,0,1-2.6-2.59v-2a2.61,2.61,0,0,1,5.21,0v2A2.47,2.47,0,0,1,1774,120.17Zm1.49-4.57c0-1-.43-1.68-1.49-1.68s-1.5.64-1.5,1.68v1.93c0,1.06.44,1.67,1.5,1.67s1.49-.61,1.49-1.67Z" transform="translate(-13.11 -9.35)"/></g><g class="cls-22"><path class="cls-15" d="M1829.62,198.07V185.89l-2.56,2.26v-1.58l2.56-2.22H1831v13.72Z" transform="translate(-13.11 -9.35)"/><path class="cls-15" d="M1836.4,198.07v-1.81h1.81v1.81Z" transform="translate(-13.11 -9.35)"/><path class="cls-15" d="M1845,198.19a3.65,3.65,0,0,1-3.82-3.95,6.77,6.77,0,0,1,.87-3.09l3.37-6.8h1.43l-3.07,6.17a3.39,3.39,0,0,1,1.45-.29,3.57,3.57,0,0,1,3.56,3.89A3.75,3.75,0,0,1,1845,198.19Zm0-6.79c-1.47,0-2.41,1.08-2.41,2.78s.94,2.77,2.41,2.77a2.8,2.8,0,0,0,0-5.55Z" transform="translate(-13.11 -9.35)"/><path class="cls-15" d="M1853.82,191.42a2.45,2.45,0,0,1-2.6-2.58v-2a2.6,2.6,0,1,1,5.2,0v2A2.45,2.45,0,0,1,1853.82,191.42Zm1.48-4.57c0-1-.42-1.67-1.48-1.67s-1.5.63-1.5,1.67v2c0,1,.44,1.66,1.5,1.66s1.48-.62,1.48-1.66Zm.06,11.22h-1.15l6.43-13.72h1.16Zm6.82.14a2.47,2.47,0,0,1-2.6-2.59v-2a2.61,2.61,0,0,1,5.21,0v2A2.47,2.47,0,0,1,1862.18,198.21Zm1.49-4.57c0-1-.43-1.68-1.49-1.68s-1.5.64-1.5,1.68v1.93c0,1.06.44,1.67,1.5,1.67s1.49-.61,1.49-1.67Z" transform="translate(-13.11 -9.35)"/></g><g class="cls-23"><path class="cls-15" d="M1826,120V118.8l5.41-6.88a3.14,3.14,0,0,0,.77-2,2.39,2.39,0,1,0-4.77,0H1826a3.56,3.56,0,0,1,3.77-3.72,3.52,3.52,0,0,1,3.78,3.7,4.11,4.11,0,0,1-1.1,2.77l-4.8,6.13h5.9V120Z" transform="translate(-13.11 -9.35)"/><path class="cls-15" d="M1836.4,120v-1.81h1.81V120Z" transform="translate(-13.11 -9.35)"/><path class="cls-15" d="M1844.75,120.17c-2.16,0-3.92-1.14-4-3.63h1.39a2.41,2.41,0,0,0,2.64,2.39,2.51,2.51,0,0,0,2.64-2.66,2.38,2.38,0,0,0-2.7-2.65h-.29V112.4h.29a2.2,2.2,0,0,0,2.44-2.48,2.29,2.29,0,0,0-2.38-2.51,2.33,2.33,0,0,0-2.47,2.29h-1.39a3.65,3.65,0,0,1,3.86-3.52,3.55,3.55,0,0,1,3.77,3.72,3.07,3.07,0,0,1-1.85,3,3.21,3.21,0,0,1,2.1,3.35A3.72,3.72,0,0,1,1844.75,120.17Z" transform="translate(-13.11 -9.35)"/><path class="cls-15" d="M1853.82,113.38a2.45,2.45,0,0,1-2.6-2.58v-2a2.6,2.6,0,0,1,5.2,0v2A2.45,2.45,0,0,1,1853.82,113.38Zm1.48-4.56c0-1-.42-1.68-1.48-1.68s-1.5.64-1.5,1.68v1.94c0,1,.44,1.66,1.5,1.66s1.48-.62,1.48-1.66Zm.06,11.21h-1.15l6.43-13.72h1.16Zm6.82.14a2.46,2.46,0,0,1-2.6-2.59v-2a2.61,2.61,0,0,1,5.21,0v2A2.47,2.47,0,0,1,1862.18,120.17Zm1.49-4.57c0-1-.43-1.68-1.49-1.68s-1.5.64-1.5,1.68v1.93c0,1.06.44,1.67,1.5,1.67s1.49-.61,1.49-1.67Z" transform="translate(-13.11 -9.35)"/></g><g class="cls-24"><path class="cls-15" d="M1737.81,237.57v-1.23l5.41-6.88a3.15,3.15,0,0,0,.77-2,2.39,2.39,0,1,0-4.78,0h-1.38a3.57,3.57,0,0,1,3.77-3.72,3.52,3.52,0,0,1,3.78,3.7,4.11,4.11,0,0,1-1.1,2.78l-4.8,6.13h5.9v1.23Z" transform="translate(-13.11 -9.35)"/><path class="cls-15" d="M1748.25,237.57v-1.81h1.81v1.81Z" transform="translate(-13.11 -9.35)"/><path class="cls-15" d="M1756.59,237.71c-2.15,0-3.91-1.14-4-3.63H1754a2.41,2.41,0,0,0,2.63,2.39,2.52,2.52,0,0,0,2.65-2.66,2.39,2.39,0,0,0-2.7-2.66h-.29v-1.21h.29a2.21,2.21,0,0,0,2.44-2.49,2.3,2.3,0,0,0-2.39-2.5,2.32,2.32,0,0,0-2.46,2.29h-1.39a3.64,3.64,0,0,1,3.85-3.52,3.55,3.55,0,0,1,3.78,3.71,3.07,3.07,0,0,1-1.85,3,3.21,3.21,0,0,1,2.1,3.35A3.72,3.72,0,0,1,1756.59,237.71Z" transform="translate(-13.11 -9.35)"/><path class="cls-15" d="M1765.67,230.92a2.45,2.45,0,0,1-2.6-2.58v-2a2.6,2.6,0,1,1,5.2,0v2A2.45,2.45,0,0,1,1765.67,230.92Zm1.48-4.56c0-1.05-.42-1.68-1.48-1.68s-1.5.63-1.5,1.68v1.94c0,1,.44,1.66,1.5,1.66s1.48-.62,1.48-1.66Zm.06,11.21h-1.15l6.43-13.72h1.16Zm6.82.14a2.47,2.47,0,0,1-2.6-2.59v-2a2.61,2.61,0,0,1,5.21,0v2A2.47,2.47,0,0,1,1774,237.71Zm1.49-4.57c0-1-.43-1.68-1.49-1.68s-1.5.64-1.5,1.68v1.93c0,1.06.44,1.67,1.5,1.67s1.49-.61,1.49-1.67Z" transform="translate(-13.11 -9.35)"/></g><rect class="cls-3" x="152.55" y="264.85" width="14" height="14"/><path d="M194.72,288.32a4.88,4.88,0,0,1-3.56-1.4c-1.34-1.34-1.42-2.58-1.42-5.85s.08-4.5,1.42-5.84a4.88,4.88,0,0,1,3.56-1.4,4.82,4.82,0,0,1,4.94,4.24H198.1a3.35,3.35,0,0,0-3.38-2.88,3.38,3.38,0,0,0-2.46,1c-.9.92-1,2-1,4.88s.1,4,1,4.89a3.49,3.49,0,0,0,5.88-1.89h1.52A4.83,4.83,0,0,1,194.72,288.32Z" transform="translate(-13.11 -9.35)"/><path d="M209.08,287.2a4.11,4.11,0,0,1-5.64,0,7,7,0,0,1,0-7.85,4.11,4.11,0,0,1,5.64,0,7,7,0,0,1,0,7.85Zm-1-7a2.47,2.47,0,0,0-1.8-.72,2.43,2.43,0,0,0-1.78.72,4.27,4.27,0,0,0-.8,3,4.21,4.21,0,0,0,.8,3,2.4,2.4,0,0,0,1.78.73,2.44,2.44,0,0,0,1.8-.73,6.31,6.31,0,0,0,0-6.08Z" transform="translate(-13.11 -9.35)"/><path d="M215.82,288.2a2.34,2.34,0,0,1-2.5-2.62V274h1.44v11.57c0,1,.32,1.44,1.32,1.44h.78v1.24Z" transform="translate(-13.11 -9.35)"/><path d="M221.7,288.2a2.34,2.34,0,0,1-2.5-2.62V274h1.44v11.57c0,1,.32,1.44,1.32,1.44h.78v1.24Z" transform="translate(-13.11 -9.35)"/><path d="M226,283.65c0,2.16,1,3.41,2.9,3.41a3.23,3.23,0,0,0,2.58-1.12l1,.86a4.54,4.54,0,0,1-3.6,1.52c-2.62,0-4.3-1.56-4.3-5.05,0-3.2,1.54-5,4-5s4,1.82,4,4.79v.63Zm4.9-2.72a2.53,2.53,0,0,0-4.6,0,3.75,3.75,0,0,0-.3,1.64h5.22A4,4,0,0,0,230.92,280.93Z" transform="translate(-13.11 -9.35)"/><path d="M238.88,292.72a4.34,4.34,0,0,1-3.34-1.32l.94-.92a3,3,0,0,0,2.36,1c1.9,0,2.7-1.34,2.7-3V286.9a3.17,3.17,0,0,1-2.76,1.28,3.38,3.38,0,0,1-2.38-.88,7.62,7.62,0,0,1,0-8.21,3.43,3.43,0,0,1,2.4-.86,3.1,3.1,0,0,1,2.76,1.28v-1.16H243V288.5A3.92,3.92,0,0,1,238.88,292.72Zm.22-13.21c-2.14,0-2.46,1.84-2.46,3.68s.32,3.69,2.46,3.69,2.44-1.85,2.44-3.69S241.24,279.51,239.1,279.51Z" transform="translate(-13.11 -9.35)"/><path d="M247.48,283.65c0,2.16,1,3.41,2.9,3.41a3.23,3.23,0,0,0,2.58-1.12l1,.86a4.54,4.54,0,0,1-3.6,1.52c-2.62,0-4.3-1.56-4.3-5.05,0-3.2,1.54-5,4-5s4,1.82,4,4.79v.63Zm4.9-2.72a2.53,2.53,0,0,0-4.6,0,3.75,3.75,0,0,0-.3,1.64h5.22A4,4,0,0,0,252.38,280.93Z" transform="translate(-13.11 -9.35)"/><path d="M268.48,287.2a4.11,4.11,0,0,1-5.64,0,7,7,0,0,1,0-7.85,4.11,4.11,0,0,1,5.64,0,7,7,0,0,1,0,7.85Zm-1-7a2.47,2.47,0,0,0-1.8-.72,2.43,2.43,0,0,0-1.78.72,4.27,4.27,0,0,0-.8,3,4.21,4.21,0,0,0,.8,3,2.4,2.4,0,0,0,1.78.73,2.44,2.44,0,0,0,1.8-.73,6.31,6.31,0,0,0,0-6.08Z" transform="translate(-13.11 -9.35)"/><path d="M274.52,279.45v8.75h-1.44v-8.75h-1.26v-1.1h1.26v-1.8a2.4,2.4,0,0,1,2.5-2.64h1v1.24h-.78c-.92,0-1.32.54-1.32,1.44v1.76h2.1v1.1Z" transform="translate(-13.11 -9.35)"/><path d="M292.58,288.2,291.44,285h-6.22l-1.14,3.22h-1.62L287.7,274H289l5.22,14.25Zm-4.22-12.07-2.68,7.52H291Z" transform="translate(-13.11 -9.35)"/><path d="M301.74,280.23a2.06,2.06,0,0,0-1.7-.72,2.4,2.4,0,0,0-2.36,2.64v6.05h-1.44v-9.85h1.44v1.2a3.31,3.31,0,0,1,2.76-1.32,3,3,0,0,1,2.36.92Z" transform="translate(-13.11 -9.35)"/><path d="M307.42,288.2a2.41,2.41,0,0,1-2.52-2.64v-6.11h-1.24v-1.1h1.24v-3h1.44v3h2.1v1.1h-2.1v6.07c0,.9.42,1.44,1.34,1.44h.76v1.24Z" transform="translate(-13.11 -9.35)"/><path d="M314.4,288.32a5.36,5.36,0,0,1-4-1.42l1-1a4.07,4.07,0,0,0,3.06,1.14c1.64,0,2.62-.58,2.62-1.74,0-.89-.48-1.35-1.64-1.44l-1.62-.15c-1.92-.15-2.94-1-2.94-2.64,0-1.8,1.5-2.88,3.62-2.88a5.57,5.57,0,0,1,3.54,1.06l-.94.94a4.2,4.2,0,0,0-2.62-.78c-1.44,0-2.2.6-2.2,1.62s.54,1.33,1.76,1.44l1.54.14c1.72.16,2.9.8,2.9,2.66S316.8,288.32,314.4,288.32Z" transform="translate(-13.11 -9.35)"/><path d="M331.78,288.2v-.94a4.53,4.53,0,0,1-5.62.16,2.75,2.75,0,0,1-.74-2c0-1.74,1.22-2.85,3.42-2.85h2.94v-.94c0-1.42-.7-2.16-2.52-2.16a2.63,2.63,0,0,0-2.48,1.14l-1-.9a3.78,3.78,0,0,1,3.48-1.48c2.66,0,3.94,1.16,3.94,3.28v6.69Zm0-4.55H329c-1.48,0-2.22.58-2.22,1.75s.7,1.68,2.28,1.68a3,3,0,0,0,2.18-.66,2.27,2.27,0,0,0,.5-1.7Z" transform="translate(-13.11 -9.35)"/><path d="M343,288.2v-6.07c0-1.74-.94-2.62-2.42-2.62a2.31,2.31,0,0,0-2.44,2.62v6.07h-1.44v-9.85h1.44v1.08a3.55,3.55,0,0,1,2.76-1.2,3.45,3.45,0,0,1,2.52.92,3.64,3.64,0,0,1,1,2.74v6.31Z" transform="translate(-13.11 -9.35)"/><path d="M353.84,288.2V287a3.17,3.17,0,0,1-2.8,1.3,3.39,3.39,0,0,1-2.4-.86,5.94,5.94,0,0,1-1.2-4.19c0-1.58.22-3.2,1.2-4.18a3.39,3.39,0,0,1,2.4-.86,3.16,3.16,0,0,1,2.78,1.26V274h1.44V288.2Zm-2.48-8.69c-2.16,0-2.48,1.84-2.48,3.76s.32,3.77,2.48,3.77,2.46-1.85,2.46-3.77S353.5,279.51,351.36,279.51Z" transform="translate(-13.11 -9.35)"/><path d="M367.76,288.32a6.16,6.16,0,0,1-4.86-1.88l1-1A4.88,4.88,0,0,0,367.8,287c2.1,0,3.38-1,3.38-2.65a2.25,2.25,0,0,0-.7-1.78,3.06,3.06,0,0,0-1.86-.7l-1.66-.24a5,5,0,0,1-2.6-1.08,3.39,3.39,0,0,1-1.1-2.68c0-2.42,1.74-4,4.56-4a5.8,5.8,0,0,1,4.24,1.56l-1,1a4.42,4.42,0,0,0-3.32-1.24c-1.92,0-3,1.06-3,2.66a2.1,2.1,0,0,0,.64,1.66,3.84,3.84,0,0,0,1.86.74l1.66.26a4.29,4.29,0,0,1,2.58,1,3.59,3.59,0,0,1,1.2,2.8C372.68,286.78,370.74,288.32,367.76,288.32Z" transform="translate(-13.11 -9.35)"/><path d="M379.42,288.32c-2.48,0-4.36-1.68-4.36-5.05s1.88-5,4.36-5a3.9,3.9,0,0,1,3.24,1.46l-1,.92a2.7,2.7,0,0,0-2.26-1.1,2.67,2.67,0,0,0-2.28,1.12,5.79,5.79,0,0,0,0,5.29,2.67,2.67,0,0,0,2.28,1.12,2.72,2.72,0,0,0,2.26-1.12l1,.94A3.9,3.9,0,0,1,379.42,288.32Z" transform="translate(-13.11 -9.35)"/><path d="M385.32,275.55v-1.62h1.62v1.62Zm.08,12.65v-9.85h1.44v9.85Z" transform="translate(-13.11 -9.35)"/><path d="M391.34,283.65c0,2.16,1,3.41,2.9,3.41a3.23,3.23,0,0,0,2.58-1.12l1,.86a4.54,4.54,0,0,1-3.6,1.52c-2.62,0-4.3-1.56-4.3-5.05,0-3.2,1.54-5,4-5s4,1.82,4,4.79v.63Zm4.9-2.72a2.53,2.53,0,0,0-4.6,0,3.75,3.75,0,0,0-.3,1.64h5.22A4,4,0,0,0,396.24,280.93Z" transform="translate(-13.11 -9.35)"/><path d="M407.34,288.2v-6.07c0-1.74-.94-2.62-2.42-2.62a2.31,2.31,0,0,0-2.44,2.62v6.07H401v-9.85h1.44v1.08a3.55,3.55,0,0,1,2.76-1.2,3.45,3.45,0,0,1,2.52.92,3.64,3.64,0,0,1,1,2.74v6.31Z" transform="translate(-13.11 -9.35)"/><path d="M416.1,288.32c-2.48,0-4.36-1.68-4.36-5.05s1.88-5,4.36-5a3.9,3.9,0,0,1,3.24,1.46l-1,.92a2.7,2.7,0,0,0-2.26-1.1,2.67,2.67,0,0,0-2.28,1.12,5.79,5.79,0,0,0,0,5.29A2.67,2.67,0,0,0,416.1,287a2.72,2.72,0,0,0,2.26-1.12l1,.94A3.9,3.9,0,0,1,416.1,288.32Z" transform="translate(-13.11 -9.35)"/><path d="M423,283.65c0,2.16,1,3.41,2.9,3.41a3.23,3.23,0,0,0,2.58-1.12l1,.86a4.54,4.54,0,0,1-3.6,1.52c-2.62,0-4.3-1.56-4.3-5.05,0-3.2,1.54-5,4-5s4,1.82,4,4.79v.63Zm4.9-2.72a2.53,2.53,0,0,0-4.6,0,3.75,3.75,0,0,0-.3,1.64h5.22A4,4,0,0,0,427.88,280.93Z" transform="translate(-13.11 -9.35)"/><path d="M435.78,288.32a5.36,5.36,0,0,1-4-1.42l1-1a4.07,4.07,0,0,0,3.06,1.14c1.64,0,2.62-.58,2.62-1.74,0-.89-.48-1.35-1.64-1.44l-1.62-.15c-1.92-.15-2.94-1-2.94-2.64,0-1.8,1.5-2.88,3.62-2.88a5.57,5.57,0,0,1,3.54,1.06l-.94.94a4.2,4.2,0,0,0-2.62-.78c-1.44,0-2.2.6-2.2,1.62s.54,1.33,1.76,1.44l1.54.14c1.72.16,2.9.8,2.9,2.66S438.18,288.32,435.78,288.32Z" transform="translate(-13.11 -9.35)"/><rect class="cls-5" x="617.55" y="263.85" width="14" height="14"/><path d="M659.34,287.32a4.88,4.88,0,0,1-3.56-1.4c-1.34-1.34-1.42-2.58-1.42-5.85s.08-4.5,1.42-5.84a4.88,4.88,0,0,1,3.56-1.4,4.82,4.82,0,0,1,4.94,4.24h-1.56a3.35,3.35,0,0,0-3.38-2.88,3.38,3.38,0,0,0-2.46,1c-.9.92-1,2-1,4.88s.1,4,1,4.89a3.49,3.49,0,0,0,5.88-1.89h1.52A4.83,4.83,0,0,1,659.34,287.32Z" transform="translate(-13.11 -9.35)"/><path d="M673.7,286.2a4.11,4.11,0,0,1-5.64,0,7,7,0,0,1,0-7.85,4.11,4.11,0,0,1,5.64,0,7,7,0,0,1,0,7.85Zm-1-7a2.47,2.47,0,0,0-1.8-.72,2.43,2.43,0,0,0-1.78.72,4.27,4.27,0,0,0-.8,3,4.21,4.21,0,0,0,.8,3,2.4,2.4,0,0,0,1.78.73,2.44,2.44,0,0,0,1.8-.73,6.31,6.31,0,0,0,0-6.08Z" transform="translate(-13.11 -9.35)"/><path d="M680.44,287.2a2.34,2.34,0,0,1-2.5-2.62V273h1.44v11.57c0,1,.32,1.44,1.32,1.44h.78v1.24Z" transform="translate(-13.11 -9.35)"/><path d="M686.32,287.2a2.34,2.34,0,0,1-2.5-2.62V273h1.44v11.57c0,1,.32,1.44,1.32,1.44h.78v1.24Z" transform="translate(-13.11 -9.35)"/><path d="M690.64,282.65c0,2.16,1,3.41,2.9,3.41a3.23,3.23,0,0,0,2.58-1.12l1,.86a4.54,4.54,0,0,1-3.6,1.52c-2.62,0-4.3-1.56-4.3-5.05,0-3.2,1.54-5,4-5s4,1.82,4,4.79v.63Zm4.9-2.72a2.53,2.53,0,0,0-4.6,0,3.75,3.75,0,0,0-.3,1.64h5.22A4,4,0,0,0,695.54,279.93Z" transform="translate(-13.11 -9.35)"/><path d="M703.5,291.72a4.34,4.34,0,0,1-3.34-1.32l.94-.92a3,3,0,0,0,2.36,1c1.9,0,2.7-1.34,2.7-3V285.9a3.17,3.17,0,0,1-2.76,1.28,3.38,3.38,0,0,1-2.38-.88,7.62,7.62,0,0,1,0-8.21,3.43,3.43,0,0,1,2.4-.86,3.1,3.1,0,0,1,2.76,1.28v-1.16h1.42V287.5A3.92,3.92,0,0,1,703.5,291.72Zm.22-13.21c-2.14,0-2.46,1.84-2.46,3.68s.32,3.69,2.46,3.69,2.44-1.85,2.44-3.69S705.86,278.51,703.72,278.51Z" transform="translate(-13.11 -9.35)"/><path d="M712.1,282.65c0,2.16,1,3.41,2.9,3.41a3.23,3.23,0,0,0,2.58-1.12l1,.86a4.54,4.54,0,0,1-3.6,1.52c-2.62,0-4.3-1.56-4.3-5.05,0-3.2,1.54-5,4-5s4,1.82,4,4.79v.63Zm4.9-2.72a2.53,2.53,0,0,0-4.6,0,3.75,3.75,0,0,0-.3,1.64h5.22A4,4,0,0,0,717,279.93Z" transform="translate(-13.11 -9.35)"/><path d="M733.1,286.2a4.11,4.11,0,0,1-5.64,0,7,7,0,0,1,0-7.85,4.11,4.11,0,0,1,5.64,0,7,7,0,0,1,0,7.85Zm-1-7a2.47,2.47,0,0,0-1.8-.72,2.43,2.43,0,0,0-1.78.72,4.27,4.27,0,0,0-.8,3,4.21,4.21,0,0,0,.8,3,2.4,2.4,0,0,0,1.78.73,2.44,2.44,0,0,0,1.8-.73,6.31,6.31,0,0,0,0-6.08Z" transform="translate(-13.11 -9.35)"/><path d="M739.14,278.45v8.75H737.7v-8.75h-1.26v-1.1h1.26v-1.8a2.4,2.4,0,0,1,2.5-2.64h1v1.24h-.78c-.92,0-1.32.54-1.32,1.44v1.76h2.1v1.1Z" transform="translate(-13.11 -9.35)"/><path d="M748.9,287.2V273h8.84v1.36h-7.32v5h6.24v1.36h-6.24v5.15h7.32v1.36Z" transform="translate(-13.11 -9.35)"/><path d="M766.94,287.2v-6.07c0-1.74-.94-2.62-2.42-2.62a2.31,2.31,0,0,0-2.44,2.62v6.07h-1.44v-9.85h1.44v1.08a3.55,3.55,0,0,1,2.76-1.2,3.45,3.45,0,0,1,2.52.92,3.64,3.64,0,0,1,1,2.74v6.31Z" transform="translate(-13.11 -9.35)"/><path d="M775,291.72a4.34,4.34,0,0,1-3.34-1.32l.94-.92a3,3,0,0,0,2.36,1c1.9,0,2.7-1.34,2.7-3V285.9a3.17,3.17,0,0,1-2.76,1.28,3.38,3.38,0,0,1-2.38-.88,7.62,7.62,0,0,1,0-8.21,3.43,3.43,0,0,1,2.4-.86,3.1,3.1,0,0,1,2.76,1.28v-1.16h1.42V287.5A3.92,3.92,0,0,1,775,291.72Zm.22-13.21c-2.14,0-2.46,1.84-2.46,3.68s.32,3.69,2.46,3.69,2.44-1.85,2.44-3.69S777.4,278.51,775.26,278.51Z" transform="translate(-13.11 -9.35)"/><path d="M782.66,274.55v-1.62h1.62v1.62Zm.08,12.65v-9.85h1.44v9.85Z" transform="translate(-13.11 -9.35)"/><path d="M794.08,287.2v-6.07c0-1.74-.94-2.62-2.42-2.62a2.31,2.31,0,0,0-2.44,2.62v6.07h-1.44v-9.85h1.44v1.08a3.55,3.55,0,0,1,2.76-1.2,3.45,3.45,0,0,1,2.52.92,3.64,3.64,0,0,1,1,2.74v6.31Z" transform="translate(-13.11 -9.35)"/><path d="M799.92,282.65c0,2.16,1,3.41,2.9,3.41a3.23,3.23,0,0,0,2.58-1.12l1,.86a4.54,4.54,0,0,1-3.6,1.52c-2.62,0-4.3-1.56-4.3-5.05,0-3.2,1.54-5,4-5s4,1.82,4,4.79v.63Zm4.9-2.72a2.53,2.53,0,0,0-4.6,0,3.75,3.75,0,0,0-.3,1.64h5.22A4,4,0,0,0,804.82,279.93Z" transform="translate(-13.11 -9.35)"/><path d="M810.52,282.65c0,2.16,1,3.41,2.9,3.41a3.23,3.23,0,0,0,2.58-1.12l1,.86a4.54,4.54,0,0,1-3.6,1.52c-2.62,0-4.3-1.56-4.3-5.05,0-3.2,1.54-5,4-5s4,1.82,4,4.79v.63Zm4.9-2.72a2.53,2.53,0,0,0-4.6,0,3.75,3.75,0,0,0-.3,1.64h5.22A4,4,0,0,0,815.42,279.93Z" transform="translate(-13.11 -9.35)"/><path d="M825.72,279.23a2.06,2.06,0,0,0-1.7-.72,2.4,2.4,0,0,0-2.36,2.64v6.05h-1.44v-9.85h1.44v1.2a3.31,3.31,0,0,1,2.76-1.32,3,3,0,0,1,2.36.92Z" transform="translate(-13.11 -9.35)"/><path d="M828.56,274.55v-1.62h1.62v1.62Zm.08,12.65v-9.85h1.44v9.85Z" transform="translate(-13.11 -9.35)"/><path d="M840,287.2v-6.07c0-1.74-.94-2.62-2.42-2.62a2.31,2.31,0,0,0-2.44,2.62v6.07h-1.44v-9.85h1.44v1.08a3.55,3.55,0,0,1,2.76-1.2,3.45,3.45,0,0,1,2.52.92,3.64,3.64,0,0,1,1,2.74v6.31Z" transform="translate(-13.11 -9.35)"/><path d="M848.08,291.72a4.34,4.34,0,0,1-3.34-1.32l.94-.92a3,3,0,0,0,2.36,1c1.9,0,2.7-1.34,2.7-3V285.9a3.17,3.17,0,0,1-2.76,1.28,3.38,3.38,0,0,1-2.38-.88,7.62,7.62,0,0,1,0-8.21,3.43,3.43,0,0,1,2.4-.86,3.1,3.1,0,0,1,2.76,1.28v-1.16h1.42V287.5A3.92,3.92,0,0,1,848.08,291.72Zm.22-13.21c-2.14,0-2.46,1.84-2.46,3.68s.32,3.69,2.46,3.69,2.44-1.85,2.44-3.69S850.44,278.51,848.3,278.51Z" transform="translate(-13.11 -9.35)"/><rect class="cls-6" x="1043.05" y="263.85" width="14" height="14"/><path d="M1082.25,274.31v5.24h6.24v1.36h-6.24v6.29h-1.52V273h8.84v1.36Z" transform="translate(-13.11 -9.35)"/><path d="M1097.57,279.23a2.06,2.06,0,0,0-1.7-.72,2.4,2.4,0,0,0-2.36,2.64v6.05h-1.44v-9.85h1.44v1.2a3.31,3.31,0,0,1,2.76-1.32,3,3,0,0,1,2.36.92Z" transform="translate(-13.11 -9.35)"/><path d="M1106.81,286.2a4.11,4.11,0,0,1-5.64,0,7,7,0,0,1,0-7.85,4.11,4.11,0,0,1,5.64,0,7,7,0,0,1,0,7.85Zm-1-7a2.47,2.47,0,0,0-1.8-.72,2.43,2.43,0,0,0-1.78.72,4.27,4.27,0,0,0-.8,3,4.21,4.21,0,0,0,.8,3,2.4,2.4,0,0,0,1.78.73,2.44,2.44,0,0,0,1.8-.73,6.31,6.31,0,0,0,0-6.08Z" transform="translate(-13.11 -9.35)"/><path d="M1114.19,287.32a5.36,5.36,0,0,1-4-1.42l1-1a4.07,4.07,0,0,0,3.06,1.14c1.64,0,2.62-.58,2.62-1.74,0-.89-.48-1.35-1.64-1.44l-1.62-.15c-1.92-.15-2.94-1-2.94-2.64,0-1.8,1.5-2.88,3.62-2.88a5.57,5.57,0,0,1,3.54,1.06l-.94.94a4.2,4.2,0,0,0-2.62-.78c-1.44,0-2.2.6-2.2,1.62s.54,1.33,1.76,1.44l1.54.14c1.72.16,2.9.8,2.9,2.66S1116.59,287.32,1114.19,287.32Z" transform="translate(-13.11 -9.35)"/><path d="M1123.77,287.2a2.41,2.41,0,0,1-2.52-2.64v-6.11H1120v-1.1h1.24v-3h1.44v3h2.1v1.1h-2.1v6.07c0,.9.42,1.44,1.34,1.44h.76v1.24Z" transform="translate(-13.11 -9.35)"/><path d="M1136.55,287.32a6.16,6.16,0,0,1-4.86-1.88l1-1a4.88,4.88,0,0,0,3.88,1.54c2.1,0,3.38-1,3.38-2.65a2.25,2.25,0,0,0-.7-1.78,3.06,3.06,0,0,0-1.86-.7l-1.66-.24a5,5,0,0,1-2.6-1.08,3.39,3.39,0,0,1-1.1-2.68c0-2.42,1.74-4,4.56-4a5.8,5.8,0,0,1,4.24,1.56l-1,1a4.42,4.42,0,0,0-3.32-1.24c-1.92,0-3,1.06-3,2.66a2.1,2.1,0,0,0,.64,1.66,3.84,3.84,0,0,0,1.86.74l1.66.26a4.29,4.29,0,0,1,2.58,1,3.59,3.59,0,0,1,1.2,2.8C1141.47,285.78,1139.53,287.32,1136.55,287.32Z" transform="translate(-13.11 -9.35)"/><path d="M1148.21,287.32c-2.48,0-4.36-1.68-4.36-5.05s1.88-5,4.36-5a3.9,3.9,0,0,1,3.24,1.46l-1,.92a2.7,2.7,0,0,0-2.26-1.1,2.67,2.67,0,0,0-2.28,1.12,5.79,5.79,0,0,0,0,5.29,2.67,2.67,0,0,0,2.28,1.12,2.72,2.72,0,0,0,2.26-1.12l1,.94A3.9,3.9,0,0,1,1148.21,287.32Z" transform="translate(-13.11 -9.35)"/><path d="M1160.49,287.2v-6.09c0-1.74-.9-2.6-2.4-2.6a2.29,2.29,0,0,0-2.46,2.6v6.09h-1.44V273h1.44v5.48a3.55,3.55,0,0,1,2.76-1.2,3.32,3.32,0,0,1,3.54,3.64v6.33Z" transform="translate(-13.11 -9.35)"/><path d="M1171.75,286.2a4.11,4.11,0,0,1-5.64,0,7,7,0,0,1,0-7.85,4.11,4.11,0,0,1,5.64,0,7,7,0,0,1,0,7.85Zm-1-7a2.47,2.47,0,0,0-1.8-.72,2.43,2.43,0,0,0-1.78.72,4.27,4.27,0,0,0-.8,3,4.21,4.21,0,0,0,.8,3,2.4,2.4,0,0,0,1.78.73,2.44,2.44,0,0,0,1.8-.73,6.31,6.31,0,0,0,0-6.08Z" transform="translate(-13.11 -9.35)"/><path d="M1182.35,286.2a4.11,4.11,0,0,1-5.64,0,7,7,0,0,1,0-7.85,4.11,4.11,0,0,1,5.64,0,7,7,0,0,1,0,7.85Zm-1-7a2.47,2.47,0,0,0-1.8-.72,2.43,2.43,0,0,0-1.78.72,4.27,4.27,0,0,0-.8,3,4.21,4.21,0,0,0,.8,3,2.4,2.4,0,0,0,1.78.73,2.44,2.44,0,0,0,1.8-.73,6.31,6.31,0,0,0,0-6.08Z" transform="translate(-13.11 -9.35)"/><path d="M1189.09,287.2a2.34,2.34,0,0,1-2.5-2.62V273H1188v11.57c0,1,.32,1.44,1.32,1.44h.78v1.24Z" transform="translate(-13.11 -9.35)"/><path d="M1203.81,286.2a4.11,4.11,0,0,1-5.64,0,7,7,0,0,1,0-7.85,4.11,4.11,0,0,1,5.64,0,7,7,0,0,1,0,7.85Zm-1-7a2.47,2.47,0,0,0-1.8-.72,2.43,2.43,0,0,0-1.78.72,4.27,4.27,0,0,0-.8,3,4.21,4.21,0,0,0,.8,3,2.4,2.4,0,0,0,1.78.73,2.44,2.44,0,0,0,1.8-.73,6.31,6.31,0,0,0,0-6.08Z" transform="translate(-13.11 -9.35)"/><path d="M1209.85,278.45v8.75h-1.44v-8.75h-1.26v-1.1h1.26v-1.8a2.4,2.4,0,0,1,2.5-2.64h1v1.24h-.78c-.92,0-1.32.54-1.32,1.44v1.76h2.1v1.1Z" transform="translate(-13.11 -9.35)"/><path d="M1230.29,287.2V276.37l-3.9,8.59h-1.3l-4-8.59V287.2h-1.52V273h1.52l4.64,10.11,4.52-10.11h1.52V287.2Z" transform="translate(-13.11 -9.35)"/><path d="M1241.89,287.2v-1.1a3.61,3.61,0,0,1-2.78,1.22,3.5,3.5,0,0,1-2.54-.92,3.69,3.69,0,0,1-1-2.76v-6.29H1237v6.06c0,1.75.92,2.63,2.4,2.63a2.33,2.33,0,0,0,2.46-2.63v-6.06h1.44v9.85Z" transform="translate(-13.11 -9.35)"/><path d="M1250,287.32a5.36,5.36,0,0,1-4-1.42l1-1a4.07,4.07,0,0,0,3.06,1.14c1.64,0,2.62-.58,2.62-1.74,0-.89-.48-1.35-1.64-1.44l-1.62-.15c-1.92-.15-2.94-1-2.94-2.64,0-1.8,1.5-2.88,3.62-2.88a5.57,5.57,0,0,1,3.54,1.06l-.94.94a4.2,4.2,0,0,0-2.62-.78c-1.44,0-2.2.6-2.2,1.62s.54,1.33,1.76,1.44l1.54.14c1.72.16,2.9.8,2.9,2.66S1252.41,287.32,1250,287.32Z" transform="translate(-13.11 -9.35)"/><path d="M1256.75,274.55v-1.62h1.62v1.62Zm.08,12.65v-9.85h1.44v9.85Z" transform="translate(-13.11 -9.35)"/><path d="M1265.69,287.32c-2.48,0-4.36-1.68-4.36-5.05s1.88-5,4.36-5a3.9,3.9,0,0,1,3.24,1.46l-1,.92a2.7,2.7,0,0,0-2.26-1.1,2.67,2.67,0,0,0-2.28,1.12,5.79,5.79,0,0,0,0,5.29,2.67,2.67,0,0,0,2.28,1.12,2.72,2.72,0,0,0,2.26-1.12l1,.94A3.9,3.9,0,0,1,1265.69,287.32Z" transform="translate(-13.11 -9.35)"/><rect class="cls-7" x="1462.29" y="264.61" width="14" height="14"/><path d="M1510.36,288.2V277.37l-3.9,8.59h-1.3l-4-8.59V288.2h-1.52V274h1.52l4.64,10.11,4.52-10.11h1.52V288.2Z" transform="translate(-13.11 -9.35)"/><path d="M1515.66,275.55v-1.62h1.62v1.62Zm.08,12.65v-9.85h1.44v9.85Z" transform="translate(-13.11 -9.35)"/><path d="M1526.36,288.2v-.94a4.53,4.53,0,0,1-5.62.16,2.75,2.75,0,0,1-.74-2c0-1.74,1.22-2.85,3.42-2.85h2.94v-.94c0-1.42-.7-2.16-2.52-2.16a2.63,2.63,0,0,0-2.48,1.14l-1-.9a3.78,3.78,0,0,1,3.48-1.48c2.66,0,3.94,1.16,3.94,3.28v6.69Zm0-4.55h-2.74c-1.48,0-2.22.58-2.22,1.75s.7,1.68,2.28,1.68a3,3,0,0,0,2.18-.66,2.27,2.27,0,0,0,.5-1.7Z" transform="translate(-13.11 -9.35)"/><path d="M1543.94,288.2v-6.07c0-1.74-.94-2.62-2.42-2.62a2.3,2.3,0,0,0-2.46,2.46v6.23h-1.44v-6.07c0-1.74-.94-2.62-2.42-2.62a2.33,2.33,0,0,0-2.46,2.62v6.07h-1.44v-9.85h1.44v1.08a3.59,3.59,0,0,1,2.78-1.2,3.24,3.24,0,0,1,3,1.64,3.77,3.77,0,0,1,3.24-1.64,3.58,3.58,0,0,1,2.54.92,3.66,3.66,0,0,1,1.06,2.74v6.31Z" transform="translate(-13.11 -9.35)"/><path d="M1548.8,275.55v-1.62h1.62v1.62Zm.08,12.65v-9.85h1.44v9.85Z" transform="translate(-13.11 -9.35)"/><path d="M1564.7,288.2h-5.54V274h5.36c2.48,0,4.2,1.42,4.2,3.8a3.26,3.26,0,0,1-2.1,3.12,3.45,3.45,0,0,1,2.32,3.39C1568.94,286.84,1567.22,288.2,1564.7,288.2Zm-.3-12.89h-3.72v4.94h3.72c1.58,0,2.8-.78,2.8-2.48S1566,275.31,1564.4,275.31Zm.16,6.3h-3.88v5.23h3.88a2.63,2.63,0,1,0,0-5.23Z" transform="translate(-13.11 -9.35)"/><path d="M1578.48,288.2v-1.1a3.61,3.61,0,0,1-2.78,1.22,3.5,3.5,0,0,1-2.54-.92,3.69,3.69,0,0,1-1-2.76v-6.29h1.44v6.06c0,1.75.92,2.63,2.4,2.63a2.33,2.33,0,0,0,2.46-2.63v-6.06h1.44v9.85Z" transform="translate(-13.11 -9.35)"/><path d="M1586.6,288.32a5.36,5.36,0,0,1-4-1.42l1-1a4.07,4.07,0,0,0,3.06,1.14c1.64,0,2.62-.58,2.62-1.74,0-.89-.48-1.35-1.64-1.44l-1.62-.15c-1.92-.15-2.94-1-2.94-2.64,0-1.8,1.5-2.88,3.62-2.88a5.57,5.57,0,0,1,3.54,1.06l-.94.94a4.2,4.2,0,0,0-2.62-.78c-1.44,0-2.2.6-2.2,1.62s.54,1.33,1.76,1.44l1.54.14c1.72.16,2.9.8,2.9,2.66S1589,288.32,1586.6,288.32Z" transform="translate(-13.11 -9.35)"/><path d="M1593.34,275.55v-1.62H1595v1.62Zm.08,12.65v-9.85h1.44v9.85Z" transform="translate(-13.11 -9.35)"/><path d="M1604.76,288.2v-6.07c0-1.74-.94-2.62-2.42-2.62a2.31,2.31,0,0,0-2.44,2.62v6.07h-1.44v-9.85h1.44v1.08a3.55,3.55,0,0,1,2.76-1.2,3.45,3.45,0,0,1,2.52.92,3.64,3.64,0,0,1,1,2.74v6.31Z" transform="translate(-13.11 -9.35)"/><path d="M1610.6,283.65c0,2.16,1,3.41,2.9,3.41a3.23,3.23,0,0,0,2.58-1.12l1,.86a4.54,4.54,0,0,1-3.6,1.52c-2.62,0-4.3-1.56-4.3-5.05,0-3.2,1.54-5,4-5s4,1.82,4,4.79v.63Zm4.9-2.72a2.53,2.53,0,0,0-4.6,0,3.75,3.75,0,0,0-.3,1.64h5.22A4,4,0,0,0,1615.5,280.93Z" transform="translate(-13.11 -9.35)"/><path d="M1623.4,288.32a5.36,5.36,0,0,1-4-1.42l1-1a4.07,4.07,0,0,0,3.06,1.14c1.64,0,2.62-.58,2.62-1.74,0-.89-.48-1.35-1.64-1.44l-1.62-.15c-1.92-.15-2.94-1-2.94-2.64,0-1.8,1.5-2.88,3.62-2.88a5.57,5.57,0,0,1,3.54,1.06l-.94.94a4.2,4.2,0,0,0-2.62-.78c-1.44,0-2.2.6-2.2,1.62s.54,1.33,1.76,1.44l1.54.14c1.72.16,2.9.8,2.9,2.66S1625.8,288.32,1623.4,288.32Z" transform="translate(-13.11 -9.35)"/><path d="M1633.32,288.32a5.36,5.36,0,0,1-4-1.42l1-1a4.07,4.07,0,0,0,3.06,1.14c1.64,0,2.62-.58,2.62-1.74,0-.89-.48-1.35-1.64-1.44l-1.62-.15c-1.92-.15-2.94-1-2.94-2.64,0-1.8,1.5-2.88,3.62-2.88a5.57,5.57,0,0,1,3.54,1.06l-.94.94a4.2,4.2,0,0,0-2.62-.78c-1.44,0-2.2.6-2.2,1.62s.54,1.33,1.76,1.44l1.54.14c1.72.16,2.9.8,2.9,2.66S1635.72,288.32,1633.32,288.32Z" transform="translate(-13.11 -9.35)"/><path d="M1649,288.32a6.16,6.16,0,0,1-4.86-1.88l1-1a4.88,4.88,0,0,0,3.88,1.54c2.1,0,3.38-1,3.38-2.65a2.25,2.25,0,0,0-.7-1.78,3.06,3.06,0,0,0-1.86-.7l-1.66-.24a5,5,0,0,1-2.6-1.08,3.39,3.39,0,0,1-1.1-2.68c0-2.42,1.74-4,4.56-4a5.8,5.8,0,0,1,4.24,1.56l-1,1a4.42,4.42,0,0,0-3.32-1.24c-1.92,0-3,1.06-3,2.66a2.1,2.1,0,0,0,.64,1.66,3.84,3.84,0,0,0,1.86.74l1.66.26a4.29,4.29,0,0,1,2.58,1,3.59,3.59,0,0,1,1.2,2.8C1654,286.78,1652,288.32,1649,288.32Z" transform="translate(-13.11 -9.35)"/><path d="M1660.7,288.32c-2.48,0-4.36-1.68-4.36-5.05s1.88-5,4.36-5a3.9,3.9,0,0,1,3.24,1.46l-1,.92a2.7,2.7,0,0,0-2.26-1.1,2.67,2.67,0,0,0-2.28,1.12,5.79,5.79,0,0,0,0,5.29,2.67,2.67,0,0,0,2.28,1.12,2.72,2.72,0,0,0,2.26-1.12l1,.94A3.9,3.9,0,0,1,1660.7,288.32Z" transform="translate(-13.11 -9.35)"/><path d="M1673,288.2v-6.09c0-1.74-.9-2.6-2.4-2.6a2.29,2.29,0,0,0-2.46,2.6v6.09h-1.44V274h1.44v5.48a3.55,3.55,0,0,1,2.76-1.2,3.32,3.32,0,0,1,3.54,3.64v6.33Z" transform="translate(-13.11 -9.35)"/><path d="M1684.24,287.2a4.11,4.11,0,0,1-5.64,0,7,7,0,0,1,0-7.85,4.11,4.11,0,0,1,5.64,0,7,7,0,0,1,0,7.85Zm-1-7a2.47,2.47,0,0,0-1.8-.72,2.43,2.43,0,0,0-1.78.72,4.27,4.27,0,0,0-.8,3,4.21,4.21,0,0,0,.8,3,2.4,2.4,0,0,0,1.78.73,2.44,2.44,0,0,0,1.8-.73,6.31,6.31,0,0,0,0-6.08Z" transform="translate(-13.11 -9.35)"/><path d="M1694.84,287.2a4.11,4.11,0,0,1-5.64,0,7,7,0,0,1,0-7.85,4.11,4.11,0,0,1,5.64,0,7,7,0,0,1,0,7.85Zm-1-7a2.47,2.47,0,0,0-1.8-.72,2.43,2.43,0,0,0-1.78.72,4.27,4.27,0,0,0-.8,3,4.21,4.21,0,0,0,.8,3,2.4,2.4,0,0,0,1.78.73,2.44,2.44,0,0,0,1.8-.73,6.31,6.31,0,0,0,0-6.08Z" transform="translate(-13.11 -9.35)"/><path d="M1701.58,288.2a2.34,2.34,0,0,1-2.5-2.62V274h1.44v11.57c0,1,.32,1.44,1.32,1.44h.78v1.24Z" transform="translate(-13.11 -9.35)"/><rect class="cls-8" x="152.55" y="294.85" width="14" height="14"/><path d="M200.81,318.2V307.37l-3.9,8.59h-1.3l-4-8.59V318.2h-1.52V304h1.52l4.64,10.11L200.81,304h1.53V318.2Z" transform="translate(-13.11 -9.35)"/><path d="M206.11,305.55v-1.62h1.62v1.62Zm.08,12.65v-9.85h1.44v9.85Z" transform="translate(-13.11 -9.35)"/><path d="M213.69,318.2a2.34,2.34,0,0,1-2.5-2.62V304h1.44v11.57c0,1,.32,1.44,1.32,1.44h.78v1.24Z" transform="translate(-13.11 -9.35)"/><path d="M219.57,318.2a2.34,2.34,0,0,1-2.5-2.62V304h1.44v11.57c0,1,.32,1.44,1.32,1.44h.78v1.24Z" transform="translate(-13.11 -9.35)"/><path d="M223.89,313.65c0,2.16,1,3.41,2.9,3.41a3.23,3.23,0,0,0,2.58-1.12l1,.86a4.54,4.54,0,0,1-3.6,1.52c-2.62,0-4.3-1.56-4.3-5.05,0-3.2,1.54-5,4-5s4,1.82,4,4.79v.63Zm4.9-2.72a2.53,2.53,0,0,0-4.6,0,3.75,3.75,0,0,0-.3,1.64h5.22A4,4,0,0,0,228.79,310.93Z" transform="translate(-13.11 -9.35)"/><path d="M239.09,310.23a2.06,2.06,0,0,0-1.7-.72,2.4,2.4,0,0,0-2.36,2.64v6.05h-1.44v-9.85H235v1.2a3.31,3.31,0,0,1,2.76-1.32,3,3,0,0,1,2.36.92Z" transform="translate(-13.11 -9.35)"/><path d="M250.91,318.32a6.16,6.16,0,0,1-4.86-1.88l1-1A4.88,4.88,0,0,0,251,317c2.1,0,3.38-1,3.38-2.65a2.25,2.25,0,0,0-.7-1.78,3.06,3.06,0,0,0-1.86-.7l-1.66-.24a5,5,0,0,1-2.6-1.08,3.39,3.39,0,0,1-1.1-2.68c0-2.42,1.74-4,4.56-4a5.8,5.8,0,0,1,4.24,1.56l-1,1a4.42,4.42,0,0,0-3.32-1.24c-1.92,0-3,1.06-3,2.66a2.1,2.1,0,0,0,.64,1.66,3.84,3.84,0,0,0,1.86.74l1.66.26a4.29,4.29,0,0,1,2.58,1,3.59,3.59,0,0,1,1.2,2.8C255.83,316.78,253.89,318.32,250.91,318.32Z" transform="translate(-13.11 -9.35)"/><path d="M262.57,318.32c-2.48,0-4.36-1.68-4.36-5.05s1.88-5,4.36-5a3.9,3.9,0,0,1,3.24,1.46l-1,.92a2.7,2.7,0,0,0-2.26-1.1,2.67,2.67,0,0,0-2.28,1.12,5.79,5.79,0,0,0,0,5.29,2.67,2.67,0,0,0,2.28,1.12,2.72,2.72,0,0,0,2.26-1.12l1,.94A3.9,3.9,0,0,1,262.57,318.32Z" transform="translate(-13.11 -9.35)"/><path d="M274.85,318.2v-6.09c0-1.74-.9-2.6-2.4-2.6a2.29,2.29,0,0,0-2.46,2.6v6.09h-1.44V304H270v5.48a3.55,3.55,0,0,1,2.76-1.2,3.32,3.32,0,0,1,3.54,3.64v6.33Z" transform="translate(-13.11 -9.35)"/><path d="M286.11,317.2a4.11,4.11,0,0,1-5.64,0,7,7,0,0,1,0-7.85,4.11,4.11,0,0,1,5.64,0,7,7,0,0,1,0,7.85Zm-1-7a2.47,2.47,0,0,0-1.8-.72,2.43,2.43,0,0,0-1.78.72,4.27,4.27,0,0,0-.8,3,4.21,4.21,0,0,0,.8,3,2.4,2.4,0,0,0,1.78.73,2.44,2.44,0,0,0,1.8-.73,6.31,6.31,0,0,0,0-6.08Z" transform="translate(-13.11 -9.35)"/><path d="M296.71,317.2a4.11,4.11,0,0,1-5.64,0,7,7,0,0,1,0-7.85,4.11,4.11,0,0,1,5.64,0,7,7,0,0,1,0,7.85Zm-1-7a2.47,2.47,0,0,0-1.8-.72,2.43,2.43,0,0,0-1.78.72,4.27,4.27,0,0,0-.8,3,4.21,4.21,0,0,0,.8,3,2.4,2.4,0,0,0,1.78.73,2.44,2.44,0,0,0,1.8-.73,6.31,6.31,0,0,0,0-6.08Z" transform="translate(-13.11 -9.35)"/><path d="M303.45,318.2a2.34,2.34,0,0,1-2.5-2.62V304h1.44v11.57c0,1,.32,1.44,1.32,1.44h.78v1.24Z" transform="translate(-13.11 -9.35)"/><path d="M318.17,317.2a4.11,4.11,0,0,1-5.64,0,7,7,0,0,1,0-7.85,4.11,4.11,0,0,1,5.64,0,7,7,0,0,1,0,7.85Zm-1-7a2.47,2.47,0,0,0-1.8-.72,2.43,2.43,0,0,0-1.78.72,4.27,4.27,0,0,0-.8,3,4.21,4.21,0,0,0,.8,3,2.4,2.4,0,0,0,1.78.73,2.44,2.44,0,0,0,1.8-.73,6.31,6.31,0,0,0,0-6.08Z" transform="translate(-13.11 -9.35)"/><path d="M324.21,309.45v8.75h-1.44v-8.75h-1.26v-1.1h1.26v-1.8a2.4,2.4,0,0,1,2.5-2.64h1v1.24h-.78c-.92,0-1.32.54-1.32,1.44v1.76h2.1v1.1Z" transform="translate(-13.11 -9.35)"/><path d="M344.65,318.2V307.37l-3.9,8.59h-1.3l-4-8.59V318.2H334V304h1.52l4.64,10.11L344.65,304h1.52V318.2Z" transform="translate(-13.11 -9.35)"/><path d="M350.93,313.65c0,2.16,1,3.41,2.9,3.41a3.23,3.23,0,0,0,2.58-1.12l1,.86a4.54,4.54,0,0,1-3.6,1.52c-2.62,0-4.3-1.56-4.3-5.05,0-3.2,1.54-5,4-5s4,1.82,4,4.79v.63Zm4.9-2.72a2.53,2.53,0,0,0-4.6,0,3.75,3.75,0,0,0-.3,1.64h5.22A4,4,0,0,0,355.83,310.93Z" transform="translate(-13.11 -9.35)"/><path d="M366.51,318.2V317a3.17,3.17,0,0,1-2.8,1.3,3.39,3.39,0,0,1-2.4-.86,5.94,5.94,0,0,1-1.2-4.19c0-1.58.22-3.2,1.2-4.18a3.39,3.39,0,0,1,2.4-.86,3.16,3.16,0,0,1,2.78,1.26V304h1.44V318.2ZM364,309.51c-2.16,0-2.48,1.84-2.48,3.76S361.87,317,364,317s2.46-1.85,2.46-3.77S366.17,309.51,364,309.51Z" transform="translate(-13.11 -9.35)"/><path d="M371.45,305.55v-1.62h1.62v1.62Zm.08,12.65v-9.85H373v9.85Z" transform="translate(-13.11 -9.35)"/><path d="M380.39,318.32c-2.48,0-4.36-1.68-4.36-5.05s1.88-5,4.36-5a3.9,3.9,0,0,1,3.24,1.46l-1,.92a2.7,2.7,0,0,0-2.26-1.1,2.67,2.67,0,0,0-2.28,1.12,5.79,5.79,0,0,0,0,5.29,2.67,2.67,0,0,0,2.28,1.12,2.72,2.72,0,0,0,2.26-1.12l1,.94A3.9,3.9,0,0,1,380.39,318.32Z" transform="translate(-13.11 -9.35)"/><path d="M386.29,305.55v-1.62h1.62v1.62Zm.08,12.65v-9.85h1.44v9.85Z" transform="translate(-13.11 -9.35)"/><path d="M397.71,318.2v-6.07c0-1.74-.94-2.62-2.42-2.62a2.31,2.31,0,0,0-2.44,2.62v6.07h-1.44v-9.85h1.44v1.08a3.55,3.55,0,0,1,2.76-1.2,3.45,3.45,0,0,1,2.52.92,3.64,3.64,0,0,1,1,2.74v6.31Z" transform="translate(-13.11 -9.35)"/><path d="M403.55,313.65c0,2.16,1,3.41,2.9,3.41a3.23,3.23,0,0,0,2.58-1.12l1,.86a4.54,4.54,0,0,1-3.6,1.52c-2.62,0-4.3-1.56-4.3-5.05,0-3.2,1.54-5,4-5s4,1.82,4,4.79v.63Zm4.9-2.72a2.53,2.53,0,0,0-4.6,0,3.75,3.75,0,0,0-.3,1.64h5.22A4,4,0,0,0,408.45,310.93Z" transform="translate(-13.11 -9.35)"/><rect class="cls-9" x="617.55" y="293.85" width="14" height="14"/><path d="M662.13,315.92a5.21,5.21,0,0,1-7.11,0c-1.34-1.34-1.42-2.58-1.42-5.85s.08-4.5,1.42-5.84a5.21,5.21,0,0,1,7.11,0c1.34,1.34,1.44,2.58,1.44,5.84S663.47,314.58,662.13,315.92Zm-1.08-10.73a3.54,3.54,0,0,0-4.93,0c-.9.92-1,2-1,4.88s.1,4,1,4.89a3.54,3.54,0,0,0,4.93,0c.9-.93,1-2,1-4.89S662,306.11,661.05,305.19Z" transform="translate(-13.11 -9.35)"/><path d="M669.64,317.2a2.41,2.41,0,0,1-2.52-2.64v-6.11h-1.24v-1.1h1.24v-3h1.44v3h2.1v1.1h-2.1v6.07c0,.9.42,1.44,1.34,1.44h.76v1.24Z" transform="translate(-13.11 -9.35)"/><path d="M679.82,317.2v-6.09c0-1.74-.9-2.6-2.4-2.6a2.29,2.29,0,0,0-2.46,2.6v6.09h-1.44V303H675v5.48a3.55,3.55,0,0,1,2.76-1.2,3.32,3.32,0,0,1,3.55,3.64v6.33Z" transform="translate(-13.11 -9.35)"/><path d="M685.66,312.65c0,2.16,1,3.41,2.9,3.41a3.23,3.23,0,0,0,2.58-1.12l1,.86a4.54,4.54,0,0,1-3.6,1.52c-2.62,0-4.3-1.56-4.3-5.05,0-3.2,1.54-5,4-5s4,1.82,4,4.79v.63Zm4.9-2.72a2.53,2.53,0,0,0-4.6,0,3.75,3.75,0,0,0-.3,1.64h5.22A4,4,0,0,0,690.56,309.93Z" transform="translate(-13.11 -9.35)"/><path d="M700.86,309.23a2.06,2.06,0,0,0-1.7-.72,2.4,2.4,0,0,0-2.36,2.64v6.05h-1.44v-9.85h1.44v1.2a3.31,3.31,0,0,1,2.76-1.32,3,3,0,0,1,2.36.92Z" transform="translate(-13.11 -9.35)"/><rect class="cls-10" x="1043.05" y="293.85" width="14" height="14"/><path d="M1084.42,317.32a6.16,6.16,0,0,1-4.86-1.88l1-1a4.88,4.88,0,0,0,3.88,1.54c2.1,0,3.38-1,3.38-2.65a2.25,2.25,0,0,0-.7-1.78,3.06,3.06,0,0,0-1.86-.7l-1.66-.24a5,5,0,0,1-2.6-1.08,3.39,3.39,0,0,1-1.1-2.68c0-2.42,1.74-4,4.56-4a5.8,5.8,0,0,1,4.24,1.56l-1,1a4.42,4.42,0,0,0-3.32-1.24c-1.92,0-3,1.06-3,2.66a2.1,2.1,0,0,0,.64,1.66,3.84,3.84,0,0,0,1.86.74l1.66.26a4.29,4.29,0,0,1,2.58,1,3.59,3.59,0,0,1,1.2,2.8C1089.34,315.78,1087.4,317.32,1084.42,317.32Z" transform="translate(-13.11 -9.35)"/><path d="M1096.08,317.32c-2.48,0-4.36-1.68-4.36-5.05s1.88-5,4.36-5a3.9,3.9,0,0,1,3.24,1.46l-1,.92a2.7,2.7,0,0,0-2.26-1.1,2.67,2.67,0,0,0-2.28,1.12,5.79,5.79,0,0,0,0,5.29,2.67,2.67,0,0,0,2.28,1.12,2.72,2.72,0,0,0,2.26-1.12l1,.94A3.9,3.9,0,0,1,1096.08,317.32Z" transform="translate(-13.11 -9.35)"/><path d="M1108.36,317.2v-6.09c0-1.74-.9-2.6-2.4-2.6a2.29,2.29,0,0,0-2.46,2.6v6.09h-1.44V303h1.44v5.48a3.55,3.55,0,0,1,2.76-1.2,3.32,3.32,0,0,1,3.54,3.64v6.33Z" transform="translate(-13.11 -9.35)"/><path d="M1119.62,316.2a4.11,4.11,0,0,1-5.64,0,7,7,0,0,1,0-7.85,4.11,4.11,0,0,1,5.64,0,7,7,0,0,1,0,7.85Zm-1-7a2.47,2.47,0,0,0-1.8-.72,2.43,2.43,0,0,0-1.78.72,4.27,4.27,0,0,0-.8,3,4.21,4.21,0,0,0,.8,3,2.4,2.4,0,0,0,1.78.73,2.44,2.44,0,0,0,1.8-.73,6.31,6.31,0,0,0,0-6.08Z" transform="translate(-13.11 -9.35)"/><path d="M1130.22,316.2a4.11,4.11,0,0,1-5.64,0,7,7,0,0,1,0-7.85,4.11,4.11,0,0,1,5.64,0,7,7,0,0,1,0,7.85Zm-1-7a2.47,2.47,0,0,0-1.8-.72,2.43,2.43,0,0,0-1.78.72,4.27,4.27,0,0,0-.8,3,4.21,4.21,0,0,0,.8,3,2.4,2.4,0,0,0,1.78.73,2.44,2.44,0,0,0,1.8-.73,6.31,6.31,0,0,0,0-6.08Z" transform="translate(-13.11 -9.35)"/><path d="M1137,317.2a2.34,2.34,0,0,1-2.5-2.62V303h1.44v11.57c0,1,.32,1.44,1.32,1.44h.78v1.24Z" transform="translate(-13.11 -9.35)"/><path d="M1151.68,316.2a4.11,4.11,0,0,1-5.64,0,7,7,0,0,1,0-7.85,4.11,4.11,0,0,1,5.64,0,7,7,0,0,1,0,7.85Zm-1-7a2.47,2.47,0,0,0-1.8-.72,2.43,2.43,0,0,0-1.78.72,4.27,4.27,0,0,0-.8,3,4.21,4.21,0,0,0,.8,3,2.4,2.4,0,0,0,1.78.73,2.44,2.44,0,0,0,1.8-.73,6.31,6.31,0,0,0,0-6.08Z" transform="translate(-13.11 -9.35)"/><path d="M1157.72,308.45v8.75h-1.44v-8.75H1155v-1.1h1.26v-1.8a2.4,2.4,0,0,1,2.5-2.64h1v1.24H1159c-.92,0-1.32.54-1.32,1.44v1.76h2.1v1.1Z" transform="translate(-13.11 -9.35)"/><path d="M1175.78,317.2l-1.14-3.22h-6.22l-1.14,3.22h-1.62L1170.9,303h1.28l5.22,14.25Zm-4.22-12.07-2.68,7.52h5.32Z" transform="translate(-13.11 -9.35)"/><path d="M1184.94,309.23a2.06,2.06,0,0,0-1.7-.72,2.4,2.4,0,0,0-2.36,2.64v6.05h-1.44v-9.85h1.44v1.2a3.31,3.31,0,0,1,2.76-1.32,3,3,0,0,1,2.36.92Z" transform="translate(-13.11 -9.35)"/><path d="M1191.68,317.32c-2.48,0-4.36-1.68-4.36-5.05s1.88-5,4.36-5a3.9,3.9,0,0,1,3.24,1.46l-1,.92a2.7,2.7,0,0,0-2.26-1.1,2.67,2.67,0,0,0-2.28,1.12,5.79,5.79,0,0,0,0,5.29,2.67,2.67,0,0,0,2.28,1.12,2.72,2.72,0,0,0,2.26-1.12l1,.94A3.9,3.9,0,0,1,1191.68,317.32Z" transform="translate(-13.11 -9.35)"/><path d="M1204,317.2v-6.09c0-1.74-.9-2.6-2.4-2.6a2.29,2.29,0,0,0-2.46,2.6v6.09h-1.44V303h1.44v5.48a3.55,3.55,0,0,1,2.76-1.2,3.32,3.32,0,0,1,3.54,3.64v6.33Z" transform="translate(-13.11 -9.35)"/><path d="M1208.82,304.55v-1.62h1.62v1.62Zm.08,12.65v-9.85h1.44v9.85Z" transform="translate(-13.11 -9.35)"/><path d="M1216.7,317.2a2.41,2.41,0,0,1-2.52-2.64v-6.11h-1.24v-1.1h1.24v-3h1.44v3h2.1v1.1h-2.1v6.07c0,.9.42,1.44,1.34,1.44h.76v1.24Z" transform="translate(-13.11 -9.35)"/><path d="M1221.48,312.65c0,2.16,1,3.41,2.9,3.41a3.23,3.23,0,0,0,2.58-1.12l1,.86a4.54,4.54,0,0,1-3.6,1.52c-2.62,0-4.3-1.56-4.3-5.05,0-3.2,1.54-5,4-5s4,1.82,4,4.79v.63Zm4.9-2.72a2.53,2.53,0,0,0-4.6,0,3.75,3.75,0,0,0-.3,1.64h5.22A4,4,0,0,0,1226.38,309.93Z" transform="translate(-13.11 -9.35)"/><path d="M1235,317.32c-2.48,0-4.36-1.68-4.36-5.05s1.88-5,4.36-5a3.9,3.9,0,0,1,3.24,1.46l-1,.92a2.7,2.7,0,0,0-2.26-1.1,2.67,2.67,0,0,0-2.28,1.12,5.79,5.79,0,0,0,0,5.29A2.67,2.67,0,0,0,1235,316a2.72,2.72,0,0,0,2.26-1.12l1,.94A3.9,3.9,0,0,1,1235,317.32Z" transform="translate(-13.11 -9.35)"/><path d="M1243.74,317.2a2.41,2.41,0,0,1-2.52-2.64v-6.11H1240v-1.1h1.24v-3h1.44v3h2.1v1.1h-2.1v6.07c0,.9.42,1.44,1.34,1.44h.76v1.24Z" transform="translate(-13.11 -9.35)"/><path d="M1253.84,317.2v-1.1a3.61,3.61,0,0,1-2.78,1.22,3.5,3.5,0,0,1-2.54-.92,3.69,3.69,0,0,1-1-2.76v-6.29H1249v6.06c0,1.75.92,2.63,2.4,2.63a2.33,2.33,0,0,0,2.46-2.63v-6.06h1.44v9.85Z" transform="translate(-13.11 -9.35)"/><path d="M1264.36,309.23a2.06,2.06,0,0,0-1.7-.72,2.4,2.4,0,0,0-2.36,2.64v6.05h-1.44v-9.85h1.44v1.2a3.31,3.31,0,0,1,2.76-1.32,3,3,0,0,1,2.36.92Z" transform="translate(-13.11 -9.35)"/><path d="M1268.18,312.65c0,2.16,1,3.41,2.9,3.41a3.23,3.23,0,0,0,2.58-1.12l1,.86a4.54,4.54,0,0,1-3.6,1.52c-2.62,0-4.3-1.56-4.3-5.05,0-3.2,1.54-5,4-5s4,1.82,4,4.79v.63Zm4.9-2.72a2.53,2.53,0,0,0-4.6,0,3.75,3.75,0,0,0-.3,1.64h5.22A4,4,0,0,0,1273.08,309.93Z" transform="translate(-13.11 -9.35)"/><rect class="cls-11" x="1461.89" y="292.65" width="14" height="14"/><path d="M1503.45,318.32a6.17,6.17,0,0,1-4.87-1.88l1-1a4.88,4.88,0,0,0,3.88,1.54c2.11,0,3.39-1,3.39-2.65a2.25,2.25,0,0,0-.7-1.78,3.07,3.07,0,0,0-1.87-.7l-1.66-.24a5,5,0,0,1-2.6-1.08,3.39,3.39,0,0,1-1.1-2.68c0-2.42,1.74-4,4.56-4a5.81,5.81,0,0,1,4.25,1.56l-1,1a4.42,4.42,0,0,0-3.32-1.24c-1.93,0-3,1.06-3,2.66a2.1,2.1,0,0,0,.64,1.66,3.84,3.84,0,0,0,1.86.74l1.66.26a4.3,4.3,0,0,1,2.59,1,3.59,3.59,0,0,1,1.2,2.8C1508.37,316.78,1506.43,318.32,1503.45,318.32Z" transform="translate(-13.11 -9.35)"/><path d="M1515.1,318.32c-2.48,0-4.36-1.68-4.36-5.05s1.88-5,4.36-5a3.91,3.91,0,0,1,3.25,1.46l-1,.92a2.73,2.73,0,0,0-2.27-1.1,2.67,2.67,0,0,0-2.28,1.12,5.79,5.79,0,0,0,0,5.29,2.67,2.67,0,0,0,2.28,1.12,2.75,2.75,0,0,0,2.27-1.12l1,.94A3.91,3.91,0,0,1,1515.1,318.32Z" transform="translate(-13.11 -9.35)"/><path d="M1527.38,318.2v-6.09c0-1.74-.9-2.6-2.4-2.6a2.29,2.29,0,0,0-2.46,2.6v6.09h-1.44V304h1.44v5.48a3.55,3.55,0,0,1,2.77-1.2,3.32,3.32,0,0,1,3.54,3.64v6.33Z" transform="translate(-13.11 -9.35)"/><path d="M1538.64,317.2a4.11,4.11,0,0,1-5.64,0,7,7,0,0,1,0-7.85,4.11,4.11,0,0,1,5.64,0,7,7,0,0,1,0,7.85Zm-1-7a2.46,2.46,0,0,0-1.8-.72,2.43,2.43,0,0,0-1.78.72,4.27,4.27,0,0,0-.8,3,4.21,4.21,0,0,0,.8,3,2.4,2.4,0,0,0,1.78.73,2.43,2.43,0,0,0,1.8-.73,6.24,6.24,0,0,0,0-6.08Z" transform="translate(-13.11 -9.35)"/><path d="M1549.24,317.2a4.11,4.11,0,0,1-5.64,0,7,7,0,0,1,0-7.85,4.11,4.11,0,0,1,5.64,0,7,7,0,0,1,0,7.85Zm-1-7a2.47,2.47,0,0,0-1.8-.72,2.43,2.43,0,0,0-1.78.72,4.27,4.27,0,0,0-.8,3,4.21,4.21,0,0,0,.8,3,2.4,2.4,0,0,0,1.78.73,2.44,2.44,0,0,0,1.8-.73,6.31,6.31,0,0,0,0-6.08Z" transform="translate(-13.11 -9.35)"/><path d="M1556,318.2a2.34,2.34,0,0,1-2.5-2.62V304h1.44v11.57c0,1,.32,1.44,1.32,1.44h.78v1.24Z" transform="translate(-13.11 -9.35)"/><path d="M1570.71,317.2a3.83,3.83,0,0,1-2.83,1.12,3.79,3.79,0,0,1-2.82-1.12,7,7,0,0,1,0-7.85,3.79,3.79,0,0,1,2.82-1.12,3.83,3.83,0,0,1,2.83,1.12,7.07,7.07,0,0,1,0,7.85Zm-1-7a2.46,2.46,0,0,0-1.8-.72,2.43,2.43,0,0,0-1.78.72,4.27,4.27,0,0,0-.8,3,4.21,4.21,0,0,0,.8,3,2.4,2.4,0,0,0,1.78.73,2.43,2.43,0,0,0,1.8-.73,6.31,6.31,0,0,0,0-6.08Z" transform="translate(-13.11 -9.35)"/><path d="M1576.74,309.45v8.75h-1.44v-8.75H1574v-1.1h1.26v-1.8a2.4,2.4,0,0,1,2.5-2.64h1v1.24h-.78c-.92,0-1.32.54-1.32,1.44v1.76h2.1v1.1Z" transform="translate(-13.11 -9.35)"/><path d="M1590.94,318.32a4.88,4.88,0,0,1-3.56-1.4c-1.34-1.34-1.42-2.58-1.42-5.85s.08-4.5,1.42-5.84a4.88,4.88,0,0,1,3.56-1.4,4.81,4.81,0,0,1,4.94,4.24h-1.55a3.46,3.46,0,0,0-5.85-1.88c-.9.92-1,2-1,4.88s.1,4,1,4.89a3.5,3.5,0,0,0,5.89-1.89h1.51A4.83,4.83,0,0,1,1590.94,318.32Z" transform="translate(-13.11 -9.35)"/><path d="M1605.3,317.2a4.11,4.11,0,0,1-5.64,0,7,7,0,0,1,0-7.85,4.11,4.11,0,0,1,5.64,0,7,7,0,0,1,0,7.85Zm-1-7a2.47,2.47,0,0,0-1.8-.72,2.43,2.43,0,0,0-1.78.72,4.27,4.27,0,0,0-.8,3,4.21,4.21,0,0,0,.8,3,2.4,2.4,0,0,0,1.78.73,2.44,2.44,0,0,0,1.8-.73,6.31,6.31,0,0,0,0-6.08Z" transform="translate(-13.11 -9.35)"/><path d="M1622.23,318.2v-6.07a2.45,2.45,0,1,0-4.89-.16v6.23h-1.44v-6.07c0-1.74-.94-2.62-2.42-2.62a2.33,2.33,0,0,0-2.46,2.62v6.07h-1.44v-9.85H1611v1.08a3.59,3.59,0,0,1,2.78-1.2,3.24,3.24,0,0,1,3,1.64,3.78,3.78,0,0,1,3.25-1.64,3.6,3.6,0,0,1,2.54.92,3.66,3.66,0,0,1,1.06,2.74v6.31Z" transform="translate(-13.11 -9.35)"/><path d="M1639.8,318.2v-6.07c0-1.74-.93-2.62-2.42-2.62a2.3,2.3,0,0,0-2.46,2.46v6.23h-1.44v-6.07c0-1.74-.94-2.62-2.42-2.62a2.33,2.33,0,0,0-2.46,2.62v6.07h-1.44v-9.85h1.44v1.08a3.59,3.59,0,0,1,2.78-1.2,3.24,3.24,0,0,1,3,1.64,3.77,3.77,0,0,1,3.24-1.64,3.59,3.59,0,0,1,2.55.92,3.66,3.66,0,0,1,1.06,2.74v6.31Z" transform="translate(-13.11 -9.35)"/><path d="M1651,318.2v-1.1a3.61,3.61,0,0,1-2.78,1.22,3.5,3.5,0,0,1-2.54-.92,3.69,3.69,0,0,1-1-2.76v-6.29h1.44v6.06c0,1.75.92,2.63,2.4,2.63a2.33,2.33,0,0,0,2.46-2.63v-6.06h1.44v9.85Z" transform="translate(-13.11 -9.35)"/><path d="M1662.28,318.2v-6.07c0-1.74-.94-2.62-2.42-2.62a2.31,2.31,0,0,0-2.44,2.62v6.07H1656v-9.85h1.44v1.08a3.55,3.55,0,0,1,2.76-1.2,3.49,3.49,0,0,1,2.53.92,3.67,3.67,0,0,1,1,2.74v6.31Z" transform="translate(-13.11 -9.35)"/><path d="M1667.14,305.55v-1.62h1.62v1.62Zm.08,12.65v-9.85h1.44v9.85Z" transform="translate(-13.11 -9.35)"/><path d="M1676.08,318.32c-2.48,0-4.36-1.68-4.36-5.05s1.88-5,4.36-5a3.9,3.9,0,0,1,3.24,1.46l-1,.92a2.7,2.7,0,0,0-2.26-1.1,2.67,2.67,0,0,0-2.28,1.12,5.79,5.79,0,0,0,0,5.29,2.67,2.67,0,0,0,2.28,1.12,2.72,2.72,0,0,0,2.26-1.12l1,.94A3.9,3.9,0,0,1,1676.08,318.32Z" transform="translate(-13.11 -9.35)"/><path d="M1687.64,318.2v-.94a4.53,4.53,0,0,1-5.62.16,2.75,2.75,0,0,1-.74-2c0-1.74,1.22-2.85,3.42-2.85h2.94v-.94c0-1.42-.7-2.16-2.52-2.16a2.63,2.63,0,0,0-2.48,1.14l-1-.9a3.78,3.78,0,0,1,3.48-1.48c2.66,0,3.94,1.16,3.94,3.28v6.69Zm0-4.55h-2.74c-1.48,0-2.22.58-2.22,1.75s.7,1.68,2.28,1.68a3,3,0,0,0,2.18-.66,2.27,2.27,0,0,0,.5-1.7Z" transform="translate(-13.11 -9.35)"/><path d="M1695.34,318.2a2.41,2.41,0,0,1-2.52-2.64v-6.11h-1.24v-1.1h1.24v-3h1.44v3h2.1v1.1h-2.1v6.07c0,.9.42,1.44,1.34,1.44h.76v1.24Z" transform="translate(-13.11 -9.35)"/><path d="M1699.14,305.55v-1.62h1.62v1.62Zm.08,12.65v-9.85h1.44v9.85Z" transform="translate(-13.11 -9.35)"/><path d="M1710.58,317.2a4.11,4.11,0,0,1-5.64,0,7,7,0,0,1,0-7.85,4.11,4.11,0,0,1,5.64,0,7,7,0,0,1,0,7.85Zm-1-7a2.47,2.47,0,0,0-1.8-.72,2.43,2.43,0,0,0-1.78.72,4.27,4.27,0,0,0-.8,3,4.21,4.21,0,0,0,.8,3,2.4,2.4,0,0,0,1.78.73,2.44,2.44,0,0,0,1.8-.73,6.31,6.31,0,0,0,0-6.08Z" transform="translate(-13.11 -9.35)"/><path d="M1721.16,318.2v-6.07c0-1.74-.94-2.62-2.42-2.62a2.31,2.31,0,0,0-2.44,2.62v6.07h-1.44v-9.85h1.44v1.08a3.55,3.55,0,0,1,2.76-1.2,3.45,3.45,0,0,1,2.52.92,3.64,3.64,0,0,1,1,2.74v6.31Z" transform="translate(-13.11 -9.35)"/><rect class="cls-12" x="152.55" y="324.85" width="14" height="14"/><path d="M194.7,348.32a6.2,6.2,0,0,1-4.87-1.88l1-1a4.91,4.91,0,0,0,3.89,1.54c2.1,0,3.38-1,3.38-2.65a2.25,2.25,0,0,0-.7-1.78,3.06,3.06,0,0,0-1.86-.7l-1.66-.24a5.08,5.08,0,0,1-2.61-1.08,3.43,3.43,0,0,1-1.1-2.68c0-2.42,1.75-4,4.57-4a5.8,5.8,0,0,1,4.24,1.56l-1,1a4.42,4.42,0,0,0-3.32-1.24c-1.92,0-3,1.06-3,2.66a2.1,2.1,0,0,0,.64,1.66,3.84,3.84,0,0,0,1.86.74l1.66.26a4.29,4.29,0,0,1,2.58,1,3.59,3.59,0,0,1,1.2,2.8C199.62,346.78,197.68,348.32,194.7,348.32Z" transform="translate(-13.11 -9.35)"/><path d="M206.36,348.32c-2.48,0-4.37-1.68-4.37-5.05s1.89-5,4.37-5a3.9,3.9,0,0,1,3.24,1.46l-1,.92a2.7,2.7,0,0,0-2.26-1.1,2.67,2.67,0,0,0-2.28,1.12,5.79,5.79,0,0,0,0,5.29,2.67,2.67,0,0,0,2.28,1.12,2.72,2.72,0,0,0,2.26-1.12l1,.94A3.9,3.9,0,0,1,206.36,348.32Z" transform="translate(-13.11 -9.35)"/><path d="M218.64,348.2v-6.09c0-1.74-.9-2.6-2.4-2.6a2.3,2.3,0,0,0-2.47,2.6v6.09h-1.44V334h1.44v5.48a3.58,3.58,0,0,1,2.77-1.2,3.32,3.32,0,0,1,3.54,3.64v6.33Z" transform="translate(-13.11 -9.35)"/><path d="M229.9,347.2a3.79,3.79,0,0,1-2.82,1.12,3.83,3.83,0,0,1-2.83-1.12,7,7,0,0,1,0-7.85,3.83,3.83,0,0,1,2.83-1.12,3.79,3.79,0,0,1,2.82,1.12,7,7,0,0,1,0,7.85Zm-1-7a2.6,2.6,0,0,0-3.59,0,4.31,4.31,0,0,0-.79,3,4.26,4.26,0,0,0,.79,3,2.57,2.57,0,0,0,3.59,0,6.31,6.31,0,0,0,0-6.08Z" transform="translate(-13.11 -9.35)"/><path d="M240.5,347.2a4.12,4.12,0,0,1-5.65,0,7,7,0,0,1,0-7.85,4.12,4.12,0,0,1,5.65,0,7,7,0,0,1,0,7.85Zm-1-7a2.6,2.6,0,0,0-3.59,0,4.27,4.27,0,0,0-.8,3,4.21,4.21,0,0,0,.8,3,2.57,2.57,0,0,0,3.59,0,6.31,6.31,0,0,0,0-6.08Z" transform="translate(-13.11 -9.35)"/><path d="M247.23,348.2a2.34,2.34,0,0,1-2.5-2.62V334h1.44v11.57c0,1,.33,1.44,1.33,1.44h.78v1.24Z" transform="translate(-13.11 -9.35)"/><path d="M262,347.2a4.12,4.12,0,0,1-5.65,0,7,7,0,0,1,0-7.85,4.12,4.12,0,0,1,5.65,0,7,7,0,0,1,0,7.85Zm-1-7a2.6,2.6,0,0,0-3.59,0,4.27,4.27,0,0,0-.8,3,4.21,4.21,0,0,0,.8,3,2.57,2.57,0,0,0,3.59,0,6.31,6.31,0,0,0,0-6.08Z" transform="translate(-13.11 -9.35)"/><path d="M268,339.45v8.75h-1.44v-8.75h-1.26v-1.1h1.26v-1.8a2.4,2.4,0,0,1,2.51-2.64h1v1.24h-.79c-.91,0-1.32.54-1.32,1.44v1.76h2.11v1.1Z" transform="translate(-13.11 -9.35)"/><path d="M277.75,348.2V334h8.85v1.36h-7.33v5h6.25v1.36h-6.25v5.15h7.33v1.36Z" transform="translate(-13.11 -9.35)"/><path d="M295.38,348.2V347a3.19,3.19,0,0,1-2.81,1.3,3.39,3.39,0,0,1-2.4-.86,5.94,5.94,0,0,1-1.2-4.19c0-1.58.22-3.2,1.2-4.18a3.39,3.39,0,0,1,2.4-.86,3.16,3.16,0,0,1,2.78,1.26V334h1.45V348.2Zm-2.49-8.69c-2.16,0-2.48,1.84-2.48,3.76s.32,3.77,2.48,3.77,2.46-1.85,2.46-3.77S295,339.51,292.89,339.51Z" transform="translate(-13.11 -9.35)"/><path d="M306.61,348.2v-1.1a3.59,3.59,0,0,1-2.78,1.22,3.5,3.5,0,0,1-2.54-.92,3.69,3.69,0,0,1-1-2.76v-6.29h1.44v6.06c0,1.75.92,2.63,2.4,2.63a2.33,2.33,0,0,0,2.46-2.63v-6.06H308v9.85Z" transform="translate(-13.11 -9.35)"/><path d="M315.45,348.32c-2.48,0-4.36-1.68-4.36-5.05s1.88-5,4.36-5a3.91,3.91,0,0,1,3.25,1.46l-1,.92a2.71,2.71,0,0,0-2.27-1.1,2.67,2.67,0,0,0-2.28,1.12,5.79,5.79,0,0,0,0,5.29,2.67,2.67,0,0,0,2.28,1.12,2.73,2.73,0,0,0,2.27-1.12l1,.94A3.91,3.91,0,0,1,315.45,348.32Z" transform="translate(-13.11 -9.35)"/><path d="M327,348.2v-.94a4.53,4.53,0,0,1-5.62.16,2.75,2.75,0,0,1-.74-2c0-1.74,1.22-2.85,3.42-2.85H327v-.94c0-1.42-.7-2.16-2.52-2.16a2.63,2.63,0,0,0-2.48,1.14l-1-.9a3.78,3.78,0,0,1,3.48-1.48c2.66,0,3.95,1.16,3.95,3.28v6.69Zm0-4.55h-2.74c-1.48,0-2.22.58-2.22,1.75s.7,1.68,2.28,1.68a3,3,0,0,0,2.18-.66,2.27,2.27,0,0,0,.5-1.7Z" transform="translate(-13.11 -9.35)"/><path d="M334.71,348.2a2.41,2.41,0,0,1-2.52-2.64v-6.11H331v-1.1h1.24v-3h1.44v3h2.1v1.1h-2.1v6.07c0,.9.42,1.44,1.34,1.44h.76v1.24Z" transform="translate(-13.11 -9.35)"/><path d="M338.51,335.55v-1.62h1.62v1.62Zm.08,12.65v-9.85H340v9.85Z" transform="translate(-13.11 -9.35)"/><path d="M350,347.2a4.11,4.11,0,0,1-5.64,0,7,7,0,0,1,0-7.85,4.11,4.11,0,0,1,5.64,0,7,7,0,0,1,0,7.85Zm-1-7a2.47,2.47,0,0,0-1.8-.72,2.43,2.43,0,0,0-1.78.72,4.27,4.27,0,0,0-.8,3,4.21,4.21,0,0,0,.8,3,2.4,2.4,0,0,0,1.78.73,2.44,2.44,0,0,0,1.8-.73,6.31,6.31,0,0,0,0-6.08Z" transform="translate(-13.11 -9.35)"/><path d="M360.53,348.2v-6.07c0-1.74-.94-2.62-2.42-2.62a2.31,2.31,0,0,0-2.44,2.62v6.07h-1.44v-9.85h1.44v1.08a3.55,3.55,0,0,1,2.76-1.2,3.45,3.45,0,0,1,2.52.92,3.64,3.64,0,0,1,1,2.74v6.31Z" transform="translate(-13.11 -9.35)"/><path d="M376,348.2v-.94a4.53,4.53,0,0,1-5.62.16,2.75,2.75,0,0,1-.74-2c0-1.74,1.22-2.85,3.42-2.85H376v-.94c0-1.42-.7-2.16-2.52-2.16a2.63,2.63,0,0,0-2.48,1.14l-1-.9a3.78,3.78,0,0,1,3.48-1.48c2.66,0,3.94,1.16,3.94,3.28v6.69Zm0-4.55h-2.74c-1.48,0-2.22.58-2.22,1.75s.7,1.68,2.28,1.68a3,3,0,0,0,2.18-.66,2.27,2.27,0,0,0,.5-1.7Z" transform="translate(-13.11 -9.35)"/><path d="M387.27,348.2v-6.07c0-1.74-.94-2.62-2.42-2.62a2.31,2.31,0,0,0-2.44,2.62v6.07H381v-9.85h1.44v1.08a3.55,3.55,0,0,1,2.76-1.2,3.45,3.45,0,0,1,2.52.92,3.64,3.64,0,0,1,1,2.74v6.31Z" transform="translate(-13.11 -9.35)"/><path d="M398.09,348.2V347a3.17,3.17,0,0,1-2.8,1.3,3.39,3.39,0,0,1-2.4-.86,5.94,5.94,0,0,1-1.2-4.19c0-1.58.22-3.2,1.2-4.18a3.39,3.39,0,0,1,2.4-.86,3.16,3.16,0,0,1,2.78,1.26V334h1.44V348.2Zm-2.48-8.69c-2.16,0-2.48,1.84-2.48,3.76s.32,3.77,2.48,3.77,2.46-1.85,2.46-3.77S397.75,339.51,395.61,339.51Z" transform="translate(-13.11 -9.35)"/><path d="M416.63,348.2v-6.51h-6.76v6.51h-1.52V334h1.52v6.38h6.76V334h1.52V348.2Z" transform="translate(-13.11 -9.35)"/><path d="M428.23,348.2v-1.1a3.61,3.61,0,0,1-2.78,1.22,3.5,3.5,0,0,1-2.54-.92,3.69,3.69,0,0,1-1-2.76v-6.29h1.44v6.06c0,1.75.92,2.63,2.4,2.63a2.33,2.33,0,0,0,2.46-2.63v-6.06h1.44v9.85Z" transform="translate(-13.11 -9.35)"/><path d="M445.89,348.2v-6.07c0-1.74-.94-2.62-2.42-2.62A2.3,2.3,0,0,0,441,342v6.23h-1.44v-6.07c0-1.74-.94-2.62-2.42-2.62a2.33,2.33,0,0,0-2.46,2.62v6.07h-1.44v-9.85h1.44v1.08a3.59,3.59,0,0,1,2.78-1.2,3.24,3.24,0,0,1,3,1.64,3.77,3.77,0,0,1,3.24-1.64,3.58,3.58,0,0,1,2.54.92,3.62,3.62,0,0,1,1.06,2.74v6.31Z" transform="translate(-13.11 -9.35)"/><path d="M456.41,348.2v-.94a4.53,4.53,0,0,1-5.62.16,2.75,2.75,0,0,1-.74-2c0-1.74,1.22-2.85,3.42-2.85h2.94v-.94c0-1.42-.7-2.16-2.52-2.16a2.63,2.63,0,0,0-2.48,1.14l-1-.9a3.78,3.78,0,0,1,3.48-1.48c2.66,0,3.94,1.16,3.94,3.28v6.69Zm0-4.55h-2.74c-1.48,0-2.22.58-2.22,1.75s.7,1.68,2.28,1.68a3,3,0,0,0,2.18-.66,2.27,2.27,0,0,0,.5-1.7Z" transform="translate(-13.11 -9.35)"/><path d="M467.65,348.2v-6.07c0-1.74-.94-2.62-2.42-2.62a2.31,2.31,0,0,0-2.44,2.62v6.07h-1.44v-9.85h1.44v1.08a3.55,3.55,0,0,1,2.76-1.2,3.45,3.45,0,0,1,2.52.92,3.64,3.64,0,0,1,1,2.74v6.31Z" transform="translate(-13.11 -9.35)"/><path d="M486.45,346.7a4.72,4.72,0,0,1-3.74,1.5h-4.88V334h4.88a4.72,4.72,0,0,1,3.74,1.5c1.26,1.36,1.26,3.44,1.26,5.62S487.71,345.34,486.45,346.7Zm-1.2-10.35a3.56,3.56,0,0,0-2.8-1h-3.1v11.53h3.1a3.56,3.56,0,0,0,2.8-1c.92-1,.94-2.74.94-4.73S486.17,337.33,485.25,336.35Z" transform="translate(-13.11 -9.35)"/><path d="M491.93,343.65c0,2.16,1,3.41,2.9,3.41a3.23,3.23,0,0,0,2.58-1.12l1,.86a4.54,4.54,0,0,1-3.6,1.52c-2.62,0-4.3-1.56-4.3-5.05,0-3.2,1.54-5,4-5s4,1.82,4,4.79v.63Zm4.9-2.72a2.53,2.53,0,0,0-4.6,0,3.75,3.75,0,0,0-.3,1.64h5.22A4,4,0,0,0,496.83,340.93Z" transform="translate(-13.11 -9.35)"/><path d="M504.93,348.2h-1.28l-3.6-9.85h1.56l2.68,7.91,2.7-7.91h1.56Z" transform="translate(-13.11 -9.35)"/><path d="M511.47,343.65c0,2.16,1,3.41,2.9,3.41a3.23,3.23,0,0,0,2.58-1.12l1,.86a4.54,4.54,0,0,1-3.6,1.52c-2.62,0-4.3-1.56-4.3-5.05,0-3.2,1.54-5,4-5s4,1.82,4,4.79v.63Zm4.9-2.72a2.53,2.53,0,0,0-4.6,0,3.75,3.75,0,0,0-.3,1.64h5.22A4,4,0,0,0,516.37,340.93Z" transform="translate(-13.11 -9.35)"/><path d="M523.63,348.2a2.34,2.34,0,0,1-2.5-2.62V334h1.44v11.57c0,1,.32,1.44,1.32,1.44h.78v1.24Z" transform="translate(-13.11 -9.35)"/><path d="M533.37,347.2a4.11,4.11,0,0,1-5.64,0,7,7,0,0,1,0-7.85,4.11,4.11,0,0,1,5.64,0,7,7,0,0,1,0,7.85Zm-1-7a2.47,2.47,0,0,0-1.8-.72,2.43,2.43,0,0,0-1.78.72,4.27,4.27,0,0,0-.8,3,4.21,4.21,0,0,0,.8,3,2.4,2.4,0,0,0,1.78.73,2.44,2.44,0,0,0,1.8-.73,6.31,6.31,0,0,0,0-6.08Z" transform="translate(-13.11 -9.35)"/><path d="M544.27,347.46a3.39,3.39,0,0,1-2.4.86,3.2,3.2,0,0,1-2.78-1.28v5.56h-1.44V338.35h1.44v1.16a3.18,3.18,0,0,1,2.78-1.28,3.39,3.39,0,0,1,2.4.86c1,1,1.2,2.6,1.2,4.18A5.94,5.94,0,0,1,544.27,347.46Zm-2.7-7.95c-2.16,0-2.48,1.84-2.48,3.76s.32,3.77,2.48,3.77,2.46-1.85,2.46-3.77S543.71,339.51,541.57,339.51Z" transform="translate(-13.11 -9.35)"/><path d="M561.19,348.2v-6.07c0-1.74-.94-2.62-2.42-2.62a2.3,2.3,0,0,0-2.46,2.46v6.23h-1.44v-6.07c0-1.74-.94-2.62-2.42-2.62a2.33,2.33,0,0,0-2.46,2.62v6.07h-1.44v-9.85H550v1.08a3.59,3.59,0,0,1,2.78-1.2,3.24,3.24,0,0,1,3,1.64,3.77,3.77,0,0,1,3.24-1.64,3.58,3.58,0,0,1,2.54.92,3.66,3.66,0,0,1,1.06,2.74v6.31Z" transform="translate(-13.11 -9.35)"/><path d="M567,343.65c0,2.16,1,3.41,2.9,3.41a3.23,3.23,0,0,0,2.58-1.12l1,.86a4.54,4.54,0,0,1-3.6,1.52c-2.62,0-4.3-1.56-4.3-5.05,0-3.2,1.54-5,4-5s4,1.82,4,4.79v.63Zm4.9-2.72a2.53,2.53,0,0,0-4.6,0,3.75,3.75,0,0,0-.3,1.64h5.22A4,4,0,0,0,571.93,340.93Z" transform="translate(-13.11 -9.35)"/><path d="M583,348.2v-6.07c0-1.74-.94-2.62-2.42-2.62a2.31,2.31,0,0,0-2.44,2.62v6.07h-1.44v-9.85h1.44v1.08a3.55,3.55,0,0,1,2.76-1.2,3.45,3.45,0,0,1,2.52.92,3.64,3.64,0,0,1,1,2.74v6.31Z" transform="translate(-13.11 -9.35)"/><path d="M590.73,348.2a2.41,2.41,0,0,1-2.52-2.64v-6.11H587v-1.1h1.24v-3h1.44v3h2.1v1.1h-2.1v6.07c0,.9.42,1.44,1.34,1.44h.76v1.24Z" transform="translate(-13.11 -9.35)"/><rect class="cls-13" x="617.55" y="323.85" width="14" height="14"/><path d="M659.21,347.32a6.16,6.16,0,0,1-4.86-1.88l1-1a4.88,4.88,0,0,0,3.88,1.54c2.1,0,3.38-1,3.38-2.65a2.25,2.25,0,0,0-.7-1.78,3.06,3.06,0,0,0-1.86-.7l-1.66-.24a5,5,0,0,1-2.6-1.08,3.39,3.39,0,0,1-1.1-2.68c0-2.42,1.74-4,4.56-4a5.8,5.8,0,0,1,4.24,1.56l-1,1a4.42,4.42,0,0,0-3.32-1.24c-1.92,0-3,1.06-3,2.66a2.1,2.1,0,0,0,.64,1.66,3.84,3.84,0,0,0,1.86.74l1.66.26a4.29,4.29,0,0,1,2.58,1,3.59,3.59,0,0,1,1.2,2.8C664.13,345.78,662.19,347.32,659.21,347.32Z" transform="translate(-13.11 -9.35)"/><path d="M670.87,347.32c-2.48,0-4.36-1.68-4.36-5.05s1.88-5,4.36-5a3.9,3.9,0,0,1,3.24,1.46l-1,.92a2.7,2.7,0,0,0-2.26-1.1,2.67,2.67,0,0,0-2.28,1.12,5.79,5.79,0,0,0,0,5.29,2.67,2.67,0,0,0,2.28,1.12,2.72,2.72,0,0,0,2.26-1.12l1,.94A3.9,3.9,0,0,1,670.87,347.32Z" transform="translate(-13.11 -9.35)"/><path d="M683.15,347.2v-6.09c0-1.74-.9-2.6-2.4-2.6a2.29,2.29,0,0,0-2.46,2.6v6.09h-1.44V333h1.44v5.48a3.55,3.55,0,0,1,2.76-1.2,3.32,3.32,0,0,1,3.54,3.64v6.33Z" transform="translate(-13.11 -9.35)"/><path d="M694.41,346.2a4.11,4.11,0,0,1-5.64,0,7,7,0,0,1,0-7.85,4.11,4.11,0,0,1,5.64,0,7,7,0,0,1,0,7.85Zm-1-7a2.47,2.47,0,0,0-1.8-.72,2.43,2.43,0,0,0-1.78.72,4.27,4.27,0,0,0-.8,3,4.21,4.21,0,0,0,.8,3,2.4,2.4,0,0,0,1.78.73,2.44,2.44,0,0,0,1.8-.73,6.31,6.31,0,0,0,0-6.08Z" transform="translate(-13.11 -9.35)"/><path d="M705,346.2a4.11,4.11,0,0,1-5.64,0,7,7,0,0,1,0-7.85,4.11,4.11,0,0,1,5.64,0,7,7,0,0,1,0,7.85Zm-1-7a2.47,2.47,0,0,0-1.8-.72,2.43,2.43,0,0,0-1.78.72,4.27,4.27,0,0,0-.8,3,4.21,4.21,0,0,0,.8,3,2.4,2.4,0,0,0,1.78.73,2.44,2.44,0,0,0,1.8-.73,6.31,6.31,0,0,0,0-6.08Z" transform="translate(-13.11 -9.35)"/><path d="M711.75,347.2a2.34,2.34,0,0,1-2.5-2.62V333h1.44v11.57c0,1,.32,1.44,1.32,1.44h.78v1.24Z" transform="translate(-13.11 -9.35)"/><path d="M726.47,346.2a4.11,4.11,0,0,1-5.64,0,7,7,0,0,1,0-7.85,4.11,4.11,0,0,1,5.64,0,7,7,0,0,1,0,7.85Zm-1-7a2.47,2.47,0,0,0-1.8-.72,2.43,2.43,0,0,0-1.78.72,4.27,4.27,0,0,0-.8,3,4.21,4.21,0,0,0,.8,3,2.4,2.4,0,0,0,1.78.73,2.44,2.44,0,0,0,1.8-.73,6.31,6.31,0,0,0,0-6.08Z" transform="translate(-13.11 -9.35)"/><path d="M732.51,338.45v8.75h-1.44v-8.75h-1.26v-1.1h1.26v-1.8a2.4,2.4,0,0,1,2.5-2.64h1v1.24h-.78c-.92,0-1.32.54-1.32,1.44v1.76h2.1v1.1Z" transform="translate(-13.11 -9.35)"/><path d="M751.35,347.2l-7.56-11.43V347.2h-1.52V333h1.44l7.56,11.39V333h1.52V347.2Z" transform="translate(-13.11 -9.35)"/><path d="M762.87,347.2v-1.1a3.61,3.61,0,0,1-2.78,1.22,3.5,3.5,0,0,1-2.54-.92,3.69,3.69,0,0,1-1-2.76v-6.29H758v6.06c0,1.75.92,2.63,2.4,2.63a2.33,2.33,0,0,0,2.46-2.63v-6.06h1.44v9.85Z" transform="translate(-13.11 -9.35)"/><path d="M773.39,339.23a2.06,2.06,0,0,0-1.7-.72,2.4,2.4,0,0,0-2.36,2.64v6.05h-1.44v-9.85h1.44v1.2a3.31,3.31,0,0,1,2.76-1.32,3,3,0,0,1,2.36.92Z" transform="translate(-13.11 -9.35)"/><path d="M779.41,347.32a5.36,5.36,0,0,1-4-1.42l1-1a4.07,4.07,0,0,0,3.06,1.14c1.64,0,2.62-.58,2.62-1.74,0-.89-.48-1.35-1.64-1.44l-1.62-.15c-1.92-.15-2.94-1-2.94-2.64,0-1.8,1.5-2.88,3.62-2.88a5.57,5.57,0,0,1,3.54,1.06l-.94.94a4.2,4.2,0,0,0-2.62-.78c-1.44,0-2.2.6-2.2,1.62s.54,1.33,1.76,1.44l1.54.14c1.72.16,2.9.8,2.9,2.66S781.81,347.32,779.41,347.32Z" transform="translate(-13.11 -9.35)"/><path d="M786.15,334.55v-1.62h1.62v1.62Zm.08,12.65v-9.85h1.44v9.85Z" transform="translate(-13.11 -9.35)"/><path d="M797.57,347.2v-6.07c0-1.74-.94-2.62-2.42-2.62a2.31,2.31,0,0,0-2.44,2.62v6.07h-1.44v-9.85h1.44v1.08a3.55,3.55,0,0,1,2.76-1.2,3.45,3.45,0,0,1,2.52.92,3.64,3.64,0,0,1,1,2.74v6.31Z" transform="translate(-13.11 -9.35)"/><path d="M805.67,351.72a4.34,4.34,0,0,1-3.34-1.32l.94-.92a3,3,0,0,0,2.36,1c1.9,0,2.7-1.34,2.7-3V345.9a3.17,3.17,0,0,1-2.76,1.28,3.38,3.38,0,0,1-2.38-.88,7.62,7.62,0,0,1,0-8.21,3.43,3.43,0,0,1,2.4-.86,3.1,3.1,0,0,1,2.76,1.28v-1.16h1.42V347.5A3.92,3.92,0,0,1,805.67,351.72Zm.22-13.21c-2.14,0-2.46,1.84-2.46,3.68s.32,3.69,2.46,3.69,2.44-1.85,2.44-3.69S808,338.51,805.89,338.51Z" transform="translate(-13.11 -9.35)"/><path d="M823.93,347.2v-.94a4.53,4.53,0,0,1-5.62.16,2.76,2.76,0,0,1-.75-2c0-1.74,1.23-2.85,3.43-2.85h2.94v-.94c0-1.42-.7-2.16-2.52-2.16a2.63,2.63,0,0,0-2.48,1.14l-1-.9a3.78,3.78,0,0,1,3.48-1.48c2.66,0,3.94,1.16,3.94,3.28v6.69Zm0-4.55h-2.74c-1.48,0-2.22.58-2.22,1.75s.7,1.68,2.28,1.68a3,3,0,0,0,2.18-.66,2.27,2.27,0,0,0,.5-1.7Z" transform="translate(-13.11 -9.35)"/><path d="M835.17,347.2v-6.07c0-1.74-.94-2.62-2.42-2.62a2.31,2.31,0,0,0-2.44,2.62v6.07h-1.44v-9.85h1.44v1.08a3.55,3.55,0,0,1,2.76-1.2,3.45,3.45,0,0,1,2.52.92,3.64,3.64,0,0,1,1,2.74v6.31Z" transform="translate(-13.11 -9.35)"/><path d="M846,347.2V346a3.17,3.17,0,0,1-2.8,1.3,3.39,3.39,0,0,1-2.4-.86,5.94,5.94,0,0,1-1.21-4.19c0-1.58.23-3.2,1.21-4.18a3.39,3.39,0,0,1,2.4-.86,3.16,3.16,0,0,1,2.78,1.26V333h1.44V347.2Zm-2.48-8.69c-2.16,0-2.48,1.84-2.48,3.76s.32,3.77,2.48,3.77,2.46-1.85,2.46-3.77S845.65,338.51,843.51,338.51Z" transform="translate(-13.11 -9.35)"/><path d="M864.53,347.2v-6.51h-6.76v6.51h-1.52V333h1.52v6.38h6.76V333h1.52V347.2Z" transform="translate(-13.11 -9.35)"/><path d="M870.81,342.65c0,2.16,1,3.41,2.9,3.41a3.23,3.23,0,0,0,2.58-1.12l1,.86a4.54,4.54,0,0,1-3.6,1.52c-2.63,0-4.31-1.56-4.31-5.05,0-3.2,1.55-5,4-5s4,1.82,4,4.79v.63Zm4.9-2.72a2.53,2.53,0,0,0-4.61,0,3.92,3.92,0,0,0-.29,1.64H876A4,4,0,0,0,875.71,339.93Z" transform="translate(-13.11 -9.35)"/><path d="M886.09,347.2v-.94a3.49,3.49,0,0,1-2.84,1.06,3.55,3.55,0,0,1-2.79-.9,2.75,2.75,0,0,1-.74-2c0-1.74,1.22-2.85,3.43-2.85h2.94v-.94c0-1.42-.7-2.16-2.52-2.16a2.66,2.66,0,0,0-2.49,1.14l-1-.9a3.8,3.8,0,0,1,3.49-1.48c2.66,0,3.94,1.16,3.94,3.28v6.69Zm0-4.55h-2.74c-1.48,0-2.23.58-2.23,1.75s.71,1.68,2.29,1.68a3,3,0,0,0,2.18-.66,2.27,2.27,0,0,0,.5-1.7Z" transform="translate(-13.11 -9.35)"/><path d="M893.48,347.2a2.34,2.34,0,0,1-2.5-2.62V333h1.44v11.57c0,1,.32,1.44,1.33,1.44h.78v1.24Z" transform="translate(-13.11 -9.35)"/><path d="M899.67,347.2a2.42,2.42,0,0,1-2.53-2.64v-6.11H895.9v-1.1h1.24v-3h1.44v3h2.11v1.1h-2.11v6.07c0,.9.42,1.44,1.34,1.44h.77v1.24Z" transform="translate(-13.11 -9.35)"/><path d="M909.85,347.2v-6.09c0-1.74-.9-2.6-2.41-2.6a2.29,2.29,0,0,0-2.46,2.6v6.09h-1.44V333H905v5.48a3.55,3.55,0,0,1,2.77-1.2,3.32,3.32,0,0,1,3.54,3.64v6.33Z" transform="translate(-13.11 -9.35)"/><path d="M923.68,347.32a6.16,6.16,0,0,1-4.86-1.88l1-1a4.88,4.88,0,0,0,3.88,1.54c2.11,0,3.39-1,3.39-2.65a2.25,2.25,0,0,0-.7-1.78,3.1,3.1,0,0,0-1.87-.7l-1.66-.24a5,5,0,0,1-2.6-1.08,3.39,3.39,0,0,1-1.1-2.68c0-2.42,1.74-4,4.56-4a5.82,5.82,0,0,1,4.25,1.56l-1,1a4.43,4.43,0,0,0-3.33-1.24c-1.92,0-3,1.06-3,2.66a2.1,2.1,0,0,0,.64,1.66,3.84,3.84,0,0,0,1.86.74l1.66.26a4.3,4.3,0,0,1,2.59,1,3.59,3.59,0,0,1,1.2,2.8C928.61,345.78,926.67,347.32,923.68,347.32Z" transform="translate(-13.11 -9.35)"/><path d="M934.28,347.2a2.41,2.41,0,0,1-2.52-2.64v-6.11h-1.24v-1.1h1.24v-3h1.44v3h2.1v1.1h-2.1v6.07c0,.9.42,1.44,1.34,1.44h.76v1.24Z" transform="translate(-13.11 -9.35)"/><path d="M944.38,347.2v-1.1a3.59,3.59,0,0,1-2.78,1.22,3.5,3.5,0,0,1-2.54-.92,3.69,3.69,0,0,1-1-2.76v-6.29h1.44v6.06c0,1.75.92,2.63,2.4,2.63a2.33,2.33,0,0,0,2.46-2.63v-6.06h1.45v9.85Z" transform="translate(-13.11 -9.35)"/><path d="M955.28,347.2V346a3.17,3.17,0,0,1-2.8,1.3,3.39,3.39,0,0,1-2.4-.86,5.94,5.94,0,0,1-1.2-4.19c0-1.58.22-3.2,1.2-4.18a3.39,3.39,0,0,1,2.4-.86,3.16,3.16,0,0,1,2.78,1.26V333h1.45V347.2Zm-2.48-8.69c-2.16,0-2.48,1.84-2.48,3.76s.32,3.77,2.48,3.77,2.46-1.85,2.46-3.77S954.94,338.51,952.8,338.51Z" transform="translate(-13.11 -9.35)"/><path d="M960.22,334.55v-1.62h1.62v1.62Zm.08,12.65v-9.85h1.44v9.85Z" transform="translate(-13.11 -9.35)"/><path d="M966.24,342.65c0,2.16,1,3.41,2.9,3.41a3.23,3.23,0,0,0,2.58-1.12l1,.86a4.56,4.56,0,0,1-3.61,1.52c-2.62,0-4.3-1.56-4.3-5.05,0-3.2,1.54-5,4-5s4,1.82,4,4.79v.63Zm4.9-2.72a2.53,2.53,0,0,0-4.6,0,3.75,3.75,0,0,0-.3,1.64h5.22A4,4,0,0,0,971.14,339.93Z" transform="translate(-13.11 -9.35)"/><path d="M979,347.32a5.36,5.36,0,0,1-4-1.42l1-1a4.07,4.07,0,0,0,3.06,1.14c1.64,0,2.62-.58,2.62-1.74,0-.89-.48-1.35-1.64-1.44l-1.62-.15c-1.92-.15-2.94-1-2.94-2.64,0-1.8,1.5-2.88,3.62-2.88a5.59,5.59,0,0,1,3.55,1.06l-1,.94a4.2,4.2,0,0,0-2.62-.78c-1.44,0-2.2.6-2.2,1.62s.54,1.33,1.76,1.44l1.54.14c1.73.16,2.9.8,2.9,2.66S981.45,347.32,979,347.32Z" transform="translate(-13.11 -9.35)"/></svg>